<?xml version="1.0" encoding="UTF-8" standalone="no"?>
<svg
   xmlns:dc="http://purl.org/dc/elements/1.1/"
   xmlns:cc="http://creativecommons.org/ns#"
   xmlns:rdf="http://www.w3.org/1999/02/22-rdf-syntax-ns#"
   xmlns:svg="http://www.w3.org/2000/svg"
   xmlns="http://www.w3.org/2000/svg"
   xmlns:sodipodi="http://sodipodi.sourceforge.net/DTD/sodipodi-0.dtd"
   xmlns:inkscape="http://www.inkscape.org/namespaces/inkscape"
   version="1.1"
   id="svg2"
   xml:space="preserve"
   width="618.96002"
   height="536"
   viewBox="0 0 618.96002 536"
   sodipodi:docname="2853456.eps"><metadata
     id="metadata8"><rdf:RDF><cc:Work
         rdf:about=""><dc:format>image/svg+xml</dc:format><dc:type
           rdf:resource="http://purl.org/dc/dcmitype/StillImage" /></cc:Work></rdf:RDF></metadata><defs
     id="defs6" /><sodipodi:namedview
     pagecolor="#ffffff"
     bordercolor="#666666"
     borderopacity="1"
     objecttolerance="10"
     gridtolerance="10"
     guidetolerance="10"
     inkscape:pageopacity="0"
     inkscape:pageshadow="2"
     inkscape:window-width="640"
     inkscape:window-height="480"
     id="namedview4" /><g
     id="g10"
     inkscape:groupmode="layer"
     inkscape:label="ink_ext_XXXXXX"
     transform="matrix(1.3333333,0,0,-1.3333333,0,536)"><g
       id="g12"
       transform="scale(0.1)"><path
         d="m 665.684,340.352 c 887.576,-453.793 2326.626,-453.801 3214.186,-0.012 887.58,453.801 887.58,1189.54 0,1643.33 -887.57,453.8 -2326.62,453.8 -3214.194,0.01 -887.571,-453.79 -887.571,-1189.539 0.008,-1643.328"
         style="fill:#f2f2f0;fill-opacity:1;fill-rule:nonzero;stroke:none"
         id="path14" /><path
         d="m 3568.45,1065.31 c 48.65,-28.08 144.24,-18.42 213.53,21.59 l 399.35,231.93 c 69.29,40.01 85.94,95.25 37.19,123.39 -48.75,28.14 -144.41,18.5 -213.68,-21.53 L 3605.8,1188.65 c -69.27,-40.04 -85.99,-95.26 -37.35,-123.34"
         style="fill:#e7e7e5;fill-opacity:1;fill-rule:nonzero;stroke:none"
         id="path16" /><path
         d="M 1164.25,851.422 758.047,1085.95 1164.25,1320.47 V 851.422"
         style="fill:#e7e7e5;fill-opacity:1;fill-rule:nonzero;stroke:none"
         id="path18" /><path
         d="m 2312.33,711.109 -654.7,378.241 654.86,377.5 z"
         style="fill:#e7e7e5;fill-opacity:1;fill-rule:nonzero;stroke:none"
         id="path20" /><path
         d="m 614.754,1399.76 c 1.137,95.01 -65.219,292.64 -162.324,417.19 -97.114,124.55 -251.035,216.62 -361.6019,180.27 -102.9765,-33.84 -93.48826,-168.52 29.8709,-259.17 123.36,-90.65 309.047,-204.9 361.91,-359.67 l 112.539,-190.48 19.606,211.86"
         style="fill:#5fc8ab;fill-opacity:1;fill-rule:nonzero;stroke:none"
         id="path22" /><path
         d="m 554.984,1255.88 -72.375,122.5 c -52.863,154.77 -238.55,269.02 -361.91,359.67 -67.1013,49.31 -100.5076,111.64 -100.4529,163.69 0.0469,43.64 23.6172,80.05 70.582,95.48 16.5779,5.45 34.1129,8.02 52.3089,8.02 103.125,0 226.746,-82.42 309.293,-188.29 40.386,-51.8 75.453,-116.24 102.554,-180.68 v -380.39"
         style="fill:#52c3a2;fill-opacity:1;fill-rule:nonzero;stroke:none"
         id="path24" /><path
         d="m 620.203,1269.67 c -3.027,0.28 -5.617,2.54 -6.187,5.66 -59.723,325.09 -318.926,591.87 -475.266,652 -3.574,1.38 -5.363,5.4 -3.988,8.97 1.363,3.56 5.304,5.43 8.968,3.99 159.317,-61.27 423.313,-332.43 483.938,-662.45 0.691,-3.77 -1.801,-7.38 -5.566,-8.08 l -1.899,-0.09"
         style="fill:#ffffff;fill-opacity:1;fill-rule:nonzero;stroke:none"
         id="path26" /><path
         d="m 569.336,1062.64 c -14.621,53.59 -78.797,142.51 -183.43,216.59 -115.754,81.94 -263.015,120.74 -296.3083,183.83 -40,75.8 24.3243,146.18 144.0433,129.87 119.711,-16.31 328.543,-182.42 359.281,-429.11 l -23.586,-101.18"
         style="fill:#5fc8ab;fill-opacity:1;fill-rule:nonzero;stroke:none"
         id="path28" /><path
         d="m 593.211,1118.41 c -2.633,0.25 -5,1.99 -5.93,4.66 -96.117,279.05 -306.937,379.12 -404.968,393.05 -3.797,0.53 -6.438,4.05 -5.899,7.85 0.531,3.81 3.899,6.45 7.844,5.9 108.41,-15.4 318.043,-117.45 416.16,-402.28 1.242,-3.62 -0.691,-7.58 -4.309,-8.82 -0.961,-0.34 -1.949,-0.45 -2.898,-0.36"
         style="fill:#ffffff;fill-opacity:1;fill-rule:nonzero;stroke:none"
         id="path30" /><path
         d="m 4160.39,1670.19 c 0,0 13.33,200.32 131.37,349.02 118.05,148.69 110.79,209.93 29.4,239.94 -81.39,30.02 -270.45,-149.19 -228.38,-389.17 42.07,-239.99 67.61,-199.79 67.61,-199.79"
         style="fill:#5fc8ab;fill-opacity:1;fill-rule:nonzero;stroke:none"
         id="path32" /><path
         d="m 4155.7,1667.66 c -9.17,0 -31.41,22.56 -62.92,202.32 -4.11,23.45 -6.02,46.31 -6.03,68.46 -0.11,187.85 135.75,324 214.81,324 7.02,0 13.61,-1.08 19.6,-3.29 38.39,-14.15 60.29,-35.26 60.32,-69.21 0.04,-38.03 -27.35,-92.17 -89.72,-170.73 -118.04,-148.7 -131.37,-349.02 -131.37,-349.02 0,0 -1.61,-2.53 -4.69,-2.53"
         style="fill:#52c3a2;fill-opacity:1;fill-rule:nonzero;stroke:none"
         id="path34" /><path
         d="m 4124.33,1784.61 c -2.45,0 -4.49,1.9 -4.65,4.36 -13.78,220.59 142.01,401.59 200.32,442.55 2.08,1.47 5,0.97 6.47,-1.14 1.49,-2.1 0.98,-4.99 -1.13,-6.48 -57.17,-40.16 -209.91,-217.71 -196.37,-434.35 0.17,-2.55 -1.79,-4.76 -4.35,-4.93 l -0.29,-0.01"
         style="fill:#ffffff;fill-opacity:1;fill-rule:nonzero;stroke:none"
         id="path36" /><path
         d="m 4128.3,1504.78 c 0,0 71.14,-24.65 162.55,-39.13 91.41,-14.47 131.75,29.25 131.75,29.25 0,0 -35.99,85.73 -87.91,109.79 0,0 88.02,-17.94 158.66,-65.08 0,0 55.82,-0.85 78.03,84.35 0,0 -33.07,51.27 -144.03,78.96 0,0 67.51,16.99 164.8,-7.82 7.29,-2.9 38.38,107.25 47.79,158.07 9.4,50.81 -11.02,50.28 -50.64,60.86 -39.62,10.57 -170.83,40.05 -195.63,18.26 -24.81,-21.79 -37.4,-96.3 -37.4,-96.3 0,0 -16.34,43.96 -3.72,94.43 0,0 -35.66,13.94 -90.98,-2.16 -45.25,-13.16 -47.46,-43.96 -45.41,-78.76 1.49,-25.44 7.63,-52.55 19.59,-88.36 0,0 -35.28,45.22 -36.37,143.24 0,0 -92.61,-46 -108.43,-137.92 -8.54,-49.68 -20.66,-195.65 37.35,-261.68"
         style="fill:#5fc8ab;fill-opacity:1;fill-rule:nonzero;stroke:none"
         id="path38" /><path
         d="m 4145.77,1522.65 c 1.9,0 3.74,1.08 4.63,2.91 73.76,153.26 348.01,331.34 446.25,350.44 2.78,0.55 4.61,3.25 4.07,6.03 -0.55,2.8 -3.27,4.58 -6.04,4.07 -99.85,-19.42 -378.61,-200.37 -453.54,-356.08 -1.24,-2.56 -0.17,-5.63 2.39,-6.85 l 2.24,-0.52"
         style="fill:#ffffff;fill-opacity:1;fill-rule:nonzero;stroke:none"
         id="path40" /><path
         d="m 578.953,991.789 c -11.344,0 -18.117,9.371 -18.117,25.061 v 1682.09 l 2059.944,1189.31 0.01,-1675.32 c 0,-25.71 -18.12,-57.08 -40.38,-69.94 L 595.363,996.922 c -5.812,-3.363 -11.492,-5.133 -16.41,-5.133"
         style="fill:#faf9f9;fill-opacity:1;fill-rule:nonzero;stroke:none"
         id="path42" /><path
         d="M 2626.63,3898.38 554.984,2702.32 V 1016.85 c 0,-19.58 9.758,-30.909 23.961,-30.909 5.828,0 12.391,1.911 19.34,5.911 L 2583.34,2137.93 c 23.91,13.81 43.3,47.39 43.3,75 l -0.01,1685.45 m -11.7,-20.25 0.01,-1665.2 c 0,-23.44 -17.15,-53.15 -37.45,-64.87 L 592.438,1001.99 c -4.922,-2.849 -9.59,-4.349 -13.493,-4.349 -11.066,0 -12.257,13.439 -12.257,19.209 V 2695.56 L 2614.93,3878.13"
         style="fill:#d9dad7;fill-opacity:1;fill-rule:nonzero;stroke:none"
         id="path44" /><path
         d="m 554.984,2702.32 v -281.44 l 2071.626,1196.05 0.02,281.45 L 554.984,2702.32"
         style="fill:#5fc8ab;fill-opacity:1;fill-rule:nonzero;stroke:none"
         id="path46" /><path
         d="m 717.457,2687.3 0.004,-40.36 c 0,-8.25 5.852,-11.62 12.992,-7.5 l 636.927,367.73 v 70.36 L 730.445,2709.8 c -7.144,-4.13 -12.988,-14.25 -12.988,-22.5"
         style="fill:#faf9f9;fill-opacity:1;fill-rule:nonzero;stroke:none"
         id="path48" /><path
         d="m 1435.64,3116.94 c 7.17,4.14 12.99,0.78 12.99,-7.5 v -40.36 c 0,-8.29 -5.82,-18.36 -12.99,-22.5 l -68.26,-39.41 v 70.36 l 68.26,39.41"
         style="fill:#3c515c;fill-opacity:1;fill-rule:nonzero;stroke:none"
         id="path50" /><path
         d="m 554.988,2793.04 c 0,27.61 19.383,61.19 43.301,75 L 2583.32,4014.09 c 23.91,13.81 43.31,2.62 43.31,-25 v -90.71 L 554.988,2702.32 v 90.72"
         style="fill:#3c515c;fill-opacity:1;fill-rule:nonzero;stroke:none"
         id="path52" /><path
         d="m 2396.38,3859.07 c -11.21,-6.48 -20.31,-22.23 -20.31,-35.18 0,-12.95 9.1,-18.21 20.31,-11.73 11.22,6.48 20.32,22.22 20.32,35.18 0,12.96 -9.1,18.21 -20.32,11.73"
         style="fill:#5fc8ab;fill-opacity:1;fill-rule:nonzero;stroke:none"
         id="path54" /><path
         d="m 2460.73,3896.27 c -11.22,-6.48 -20.31,-22.23 -20.31,-35.18 0,-12.96 9.09,-18.21 20.31,-11.73 11.21,6.47 20.31,22.23 20.31,35.18 0,12.96 -9.1,18.21 -20.31,11.73"
         style="fill:#5fc8ab;fill-opacity:1;fill-rule:nonzero;stroke:none"
         id="path56" /><path
         d="m 2525.07,3933.47 c -11.22,-6.47 -20.31,-22.23 -20.31,-35.18 0,-12.95 9.09,-18.2 20.31,-11.73 11.22,6.48 20.31,22.23 20.31,35.18 0,12.96 -9.09,18.21 -20.31,11.73"
         style="fill:#5fc8ab;fill-opacity:1;fill-rule:nonzero;stroke:none"
         id="path58" /><path
         d="m 1956.86,3325.07 c -14.56,0 -24.57,11.62 -24.57,31.71 0,28.31 19.88,62.74 44.4,76.9 7.12,4.12 13.86,6.07 19.83,6.07 14.56,0 24.57,-11.62 24.57,-31.71 0,-28.31 -19.88,-62.75 -44.4,-76.9 -7.13,-4.12 -13.86,-6.07 -19.83,-6.07"
         style="fill:#52c3a2;fill-opacity:1;fill-rule:nonzero;stroke:none"
         id="path60" /><path
         d="m 1753.76,3207.81 c -14.56,0 -24.56,11.62 -24.56,31.71 0,28.31 19.87,62.75 44.39,76.9 7.13,4.12 13.86,6.06 19.83,6.06 14.56,0 24.57,-11.61 24.57,-31.7 0,-28.32 -19.88,-62.75 -44.4,-76.9 -7.13,-4.12 -13.86,-6.07 -19.83,-6.07"
         style="fill:#52c3a2;fill-opacity:1;fill-rule:nonzero;stroke:none"
         id="path62" /><path
         d="m 2159.96,3442.34 c -14.56,0 -24.57,11.61 -24.57,31.7 0,28.32 19.88,62.75 44.4,76.91 7.13,4.11 13.86,6.06 19.82,6.06 14.57,0 24.58,-11.62 24.58,-31.71 0,-28.32 -19.88,-62.75 -44.4,-76.9 -7.12,-4.11 -13.86,-6.06 -19.83,-6.06"
         style="fill:#52c3a2;fill-opacity:1;fill-rule:nonzero;stroke:none"
         id="path64" /><path
         d="m 2363.07,3559.82 c -14.57,0 -24.57,11.62 -24.57,31.71 0,28.31 19.88,62.75 44.4,76.9 7.12,4.12 13.86,6.07 19.83,6.07 14.56,0 24.56,-11.62 24.56,-31.71 0,-28.31 -19.87,-62.75 -44.39,-76.9 -7.13,-4.12 -13.86,-6.07 -19.83,-6.07"
         style="fill:#52c3a2;fill-opacity:1;fill-rule:nonzero;stroke:none"
         id="path66" /><path
         d="m 760.762,2398.96 482.078,278.33 c 23.92,13.81 43.3,2.62 43.3,-25 v -462.85 c 0,-27.61 -19.38,-61.19 -43.3,-75 L 760.773,1836.11 c -23.91,-13.81 -43.3,-2.62 -43.3,24.99 l -0.012,462.86 c 0,27.62 19.387,61.19 43.301,75"
         style="fill:#d9dad7;fill-opacity:1;fill-rule:nonzero;stroke:none"
         id="path68" /><path
         d="m 1451.35,2797.65 1010.11,583.23 c 23.91,13.8 43.3,2.61 43.3,-25 v -462.86 c 0,-27.61 -19.38,-61.19 -43.3,-75 L 1451.36,2234.8 c -23.92,-13.81 -43.3,-2.62 -43.3,25 l -0.01,462.85 c 0,27.62 19.38,61.2 43.3,75"
         style="fill:#d9dad7;fill-opacity:1;fill-rule:nonzero;stroke:none"
         id="path70" /><path
         d="m 760.77,1695.4 766.41,442.49 c 23.92,13.81 43.31,4 43.31,-21.9 0,-25.9 -19.38,-58.09 -43.29,-71.9 l -766.43,-442.5 c -23.918,-13.8 -43.301,-4 -43.301,21.9 0,25.91 19.383,58.1 43.301,71.91"
         style="fill:#d9dad7;fill-opacity:1;fill-rule:nonzero;stroke:none"
         id="path72" /><path
         d="m 760.77,1531.26 766.41,442.49 c 23.92,13.81 43.31,4 43.31,-21.9 0,-25.9 -19.38,-58.1 -43.29,-71.91 L 760.77,1437.45 c -23.918,-13.81 -43.301,-4 -43.301,21.9 0,25.91 19.383,58.1 43.301,71.91"
         style="fill:#d9dad7;fill-opacity:1;fill-rule:nonzero;stroke:none"
         id="path74" /><path
         d="m 760.77,1367.11 766.41,442.5 c 23.92,13.81 43.31,4 43.31,-21.91 0,-25.9 -19.38,-58.09 -43.29,-71.9 L 760.77,1273.3 c -23.918,-13.8 -43.301,-3.99 -43.301,21.91 0,25.9 19.383,58.09 43.301,71.9"
         style="fill:#d9dad7;fill-opacity:1;fill-rule:nonzero;stroke:none"
         id="path76" /><path
         d="m 1123.67,1923.7 c 0,16.57 11.63,36.72 25.98,45 l 1329.11,767.36 c 14.34,8.28 37.6,8.29 51.96,0 l 29.28,-16.9 c 14.35,-8.29 25.98,-28.43 25.98,-45 V 1655.37 c 0,-16.5 -11.69,-36.75 -25.97,-45 L 1230.9,843.012 c -14.3,-8.25 -37.68,-8.25 -51.97,0 l -29.28,16.91 c -14.29,8.25 -25.98,28.5 -25.98,45 V 1923.7"
         style="fill:#5fc8ab;fill-opacity:1;fill-rule:nonzero;stroke:none"
         id="path78" /><path
         d="m 1131.26,1949.28 -0.01,0.01 c 3.42,5.95 7.83,11.36 12.8,15.48 -4.94,-4.1 -9.34,-9.52 -12.79,-15.49 m 1435.19,765.22 c -2.06,1.8 -4.23,3.37 -6.45,4.66 l -10.23,5.9 10.27,-5.88 c 2.2,-1.3 4.36,-2.88 6.41,-4.68 m -73.84,26.59 c 3.92,0.8 8.02,1.19 12.12,1.19 3.35,0 6.71,-0.26 9.96,-0.79 -3.25,0.52 -6.6,0.79 -9.95,0.79 -4.1,0 -8.21,-0.4 -12.13,-1.19"
         style="fill:#fcfcfc;fill-opacity:1;fill-rule:nonzero;stroke:none"
         id="path80" /><path
         d="m 1204.99,1906.77 -73.73,42.51 c 3.45,5.97 7.85,11.39 12.79,15.49 1.81,1.5 3.7,2.83 5.63,3.94 l 1329.12,767.31 c 4.01,2.35 8.76,4.05 13.81,5.07 3.92,0.79 8.03,1.19 12.13,1.19 3.35,0 6.7,-0.27 9.95,-0.79 5.86,-0.96 11.39,-2.78 15.97,-5.47 l 19.11,-10.96 10.23,-5.9 c 2.22,-1.29 4.39,-2.86 6.45,-4.66 4.58,-4.01 8.68,-9.14 11.91,-14.74 L 1204.99,1906.77"
         style="fill:#83d5c2;fill-opacity:1;fill-rule:nonzero;stroke:none"
         id="path82" /><path
         d="m 1138.18,869.648 c -8.62,9.84 -14.55,23.481 -14.55,35.301 v 390.211 l 0.04,0.03 V 904.922 c 0,-11.762 5.93,-25.41 14.51,-35.274"
         style="fill:#cacbc9;fill-opacity:1;fill-rule:nonzero;stroke:none"
         id="path84" /><path
         d="m 1123.63,1308.67 v 174.13 l 0.04,0.03 V 1308.7 l -0.04,-0.03"
         style="fill:#dadbd8;fill-opacity:1;fill-rule:nonzero;stroke:none"
         id="path86" /><path
         d="m 1123.63,1295.16 v 13.51 l 0.04,0.03 v -13.51 l -0.04,-0.03"
         style="fill:#bfc0be;fill-opacity:1;fill-rule:nonzero;stroke:none"
         id="path88" /><path
         d="m 1123.63,1576.61 v 70.34 l 0.04,0.02 v -70.33 l -0.04,-0.03 m 0,164.15 v 70.33 l 0.04,0.02 v -70.33 l -0.04,-0.02 m 0,164.14 v 18.83 c 0,8.23 2.95,17.45 7.62,25.56 l 0.01,-0.01 c -4.69,-8.13 -7.59,-17.3 -7.59,-25.58 v -18.78 l -0.04,-0.02"
         style="fill:#dadbd8;fill-opacity:1;fill-rule:nonzero;stroke:none"
         id="path90" /><path
         d="m 1123.63,1811.09 v 93.81 l 0.04,0.02 v -93.81 l -0.04,-0.02"
         style="fill:#bfc0be;fill-opacity:1;fill-rule:nonzero;stroke:none"
         id="path92" /><path
         d="m 1123.63,1646.95 v 93.81 l 0.04,0.02 v -93.81 l -0.04,-0.02"
         style="fill:#bfc0be;fill-opacity:1;fill-rule:nonzero;stroke:none"
         id="path94" /><path
         d="m 1123.63,1482.8 v 93.81 l 0.04,0.03 v -93.81 l -0.04,-0.03"
         style="fill:#bfc0be;fill-opacity:1;fill-rule:nonzero;stroke:none"
         id="path96" /><path
         d="m 1204.77,836.859 c -2.7,0 -5.38,0.161 -8.01,0.5 -3.81,0.493 -7.38,1.352 -10.69,2.45 -2.59,0.863 -4.92,1.972 -7.13,3.203 l -29.26,16.957 c -4.13,2.359 -8.03,5.711 -11.5,9.679 -8.58,9.864 -14.51,23.512 -14.51,35.274 v 390.268 13.51 174.13 93.81 70.33 93.81 70.33 93.81 18.78 c 0,8.28 2.9,17.45 7.59,25.58 l 73.73,-42.51 13.52,-7.87 c -8.11,-3.32 -13.52,-11.43 -13.52,-22.12 v -1018.768 0 c 0,-8.614 3.07,-14.512 7.99,-17.09 v 0 c 1.84,-0.922 3.9,-1.422 6.15,-1.422 1.95,0 4.04,0.379 6.26,1.172 -0.98,-0.492 -1.96,-0.863 -3.07,-1.223 -1.6,-0.5 -3.32,-0.988 -5.04,-1.359 -4.05,-0.82 -8.29,-1.231 -12.51,-1.231"
         style="fill:#52c3a2;fill-opacity:1;fill-rule:nonzero;stroke:none"
         id="path98" /><path
         d="m 2579.83,2697.09 c -0.02,0.04 -0.04,0.09 -0.06,0.13 l 3.5,5.37 -3.44,-5.5"
         style="fill:#bdbfbd;fill-opacity:1;fill-rule:nonzero;stroke:none"
         id="path100" /><path
         d="m 1212.98,840.922 v 0 c -4.92,2.578 -7.99,8.476 -7.99,17.09 v 16.949 l 526.88,799.249 -526.88,232.56 615.52,-229.96 c 11.45,-4.27 23.27,-6.31 34.94,-6.31 33.05,0 64.89,16.42 83.78,45.39 l 98.85,151.43 541.69,829.9 c 0.02,-0.04 0.04,-0.09 0.06,-0.13 l -522.05,-835.46 528.19,-206.7 c -0.12,-8.36 -3.19,-17.7 -8.11,-25.93 l -521.55,230.28 -114.86,-183.82 c -18.83,-30.04 -51.32,-47.04 -84.9,-47.04 -13.55,0 -27.27,2.77 -40.34,8.57 l -81.79,36.09 -521.44,-832.158"
         style="fill:#43be98;fill-opacity:1;fill-rule:nonzero;stroke:none"
         id="path102" /><path
         d="M 2301.66,3076.38 V 737.34 c 0,-27.61 19.39,-38.809 43.31,-25 L 3395.75,1319 c 23.9,13.81 43.3,47.39 43.3,75 v 2339.04 c 0,27.61 -19.4,38.8 -43.3,25 L 2344.97,3151.38 c -23.92,-13.81 -43.31,-47.39 -43.31,-75"
         style="fill:#faf9f9;fill-opacity:1;fill-rule:nonzero;stroke:none"
         id="path104" /><path
         d="m 2301.66,3076.38 h -5.85 V 737.34 c 0.01,-10.738 2.66,-19.82 7.94,-26.449 5.23,-6.653 13.22,-10.371 21.88,-10.309 7.1,0.008 14.63,2.289 22.26,6.699 l 1050.78,606.659 c 13.13,7.61 24.48,20.16 32.76,34.46 8.25,14.32 13.44,30.43 13.47,45.6 v 2339.04 c 0,10.73 -2.66,19.82 -7.94,26.45 -5.23,6.65 -13.22,10.37 -21.88,10.31 -7.1,-0.01 -14.63,-2.3 -22.26,-6.7 v 0 L 2342.04,3156.44 c -13.13,-7.61 -24.48,-20.16 -32.76,-34.46 -8.25,-14.33 -13.44,-30.43 -13.47,-45.6 h 5.85 5.85 c -0.03,12.44 4.47,26.92 11.9,39.75 7.39,12.84 17.69,23.98 28.48,30.18 l 1050.78,606.66 v 0 c 6.27,3.62 11.88,5.14 16.41,5.13 5.56,-0.06 9.55,-2 12.74,-5.91 3.16,-3.93 5.38,-10.31 5.38,-19.15 V 1394 c 0.03,-12.44 -4.48,-26.93 -11.9,-39.75 -7.39,-12.84 -17.69,-23.98 -28.48,-30.18 L 2342.04,717.41 c -6.27,-3.621 -11.88,-5.14 -16.41,-5.129 -5.56,0.059 -9.55,2 -12.74,5.91 -3.16,3.93 -5.38,10.297 -5.38,19.149 v 2339.04 h -5.85"
         style="fill:#d9dad7;fill-opacity:1;fill-rule:nonzero;stroke:none"
         id="path106" /><path
         d="m 2362.56,3032.79 c 0,6.48 5.03,14.64 11.25,18.23 l 119.7,69.08 c 6.22,3.59 11.26,1.25 11.26,-5.22 -0.01,-6.48 -5.05,-14.64 -11.27,-18.23 l -119.69,-69.09 c -6.22,-3.59 -11.25,-1.24 -11.25,5.23"
         style="fill:#3c515c;fill-opacity:1;fill-rule:nonzero;stroke:none"
         id="path108" /><path
         d="m 2362.56,2986.21 c 0,6.48 5.03,14.64 11.25,18.23 l 119.7,69.08 c 6.22,3.59 11.26,1.25 11.26,-5.23 -0.01,-6.47 -5.05,-14.63 -11.27,-18.22 l -119.69,-69.09 c -6.22,-3.58 -11.25,-1.25 -11.25,5.23"
         style="fill:#3c515c;fill-opacity:1;fill-rule:nonzero;stroke:none"
         id="path110" /><path
         d="m 2362.56,2939.63 c 0,6.48 5.03,14.64 11.25,18.23 l 119.7,69.08 c 6.22,3.59 11.26,1.25 11.26,-5.23 -0.01,-6.47 -5.05,-14.63 -11.27,-18.22 l -119.69,-69.09 c -6.22,-3.59 -11.25,-1.25 -11.25,5.23"
         style="fill:#3c515c;fill-opacity:1;fill-rule:nonzero;stroke:none"
         id="path112" /><path
         d="m 3294.54,3480.68 c -15.1,-8.72 -27.34,-1.65 -27.34,15.78 0,17.43 12.24,38.62 27.34,47.33 15.09,8.72 27.32,1.65 27.32,-15.77 0,-17.43 -12.23,-38.62 -27.32,-47.34 z m 63.25,58.74 v 18.68 c 0,1.11 -0.82,1.65 -1.84,1.19 l -14.4,-6.49 c -1.02,-0.46 -2.06,0.04 -2.39,1.11 -0.84,2.64 -1.93,5.02 -3.22,7.14 -0.58,0.95 -0.71,2.49 -0.21,3.49 l 9.59,19.35 c 0.5,1 0.12,2.25 -0.85,2.81 l -10.41,6.02 c -0.97,0.55 -2.26,0.25 -2.87,-0.68 l -11.97,-17.99 c -0.61,-0.92 -2.01,-1.58 -3.12,-1.55 -2.48,0.07 -5.08,-0.19 -7.79,-0.79 -1.09,-0.24 -2.04,0.42 -2.16,1.52 l -1.57,15.72 c -0.12,1.11 -0.99,1.56 -1.96,1 l -16.18,-9.34 c -0.96,-0.56 -1.82,-1.91 -1.92,-3.02 l -1.62,-18 c -0.1,-1.11 -0.86,-2.61 -1.68,-3.36 -3.16,-2.9 -6.16,-6.09 -8.99,-9.51 -0.71,-0.86 -2.13,-1.27 -3.18,-0.9 l -10.38,3.62 c -1.06,0.37 -2.37,-0.12 -2.92,-1.08 l -11.89,-20.6 c -0.56,-0.96 -0.33,-2.34 0.52,-3.06 l 8.33,-7.18 c 0.85,-0.73 1.2,-2.16 0.81,-3.2 -1.54,-4.17 -2.81,-8.37 -3.74,-12.54 -0.24,-1.09 -1.16,-2.5 -2.07,-3.14 l -14.78,-10.41 c -0.91,-0.63 -1.65,-2.06 -1.65,-3.17 v -18.68 c 0,-1.12 0.83,-1.65 1.84,-1.19 l 14.4,6.49 c 1.01,0.46 2.06,-0.05 2.4,-1.11 0.83,-2.65 1.91,-5.03 3.2,-7.14 0.59,-0.95 0.71,-2.49 0.23,-3.49 l -9.6,-19.35 c -0.5,-1 -0.12,-2.26 0.85,-2.82 l 10.42,-6.01 c 0.96,-0.55 2.24,-0.26 2.86,0.67 l 11.96,17.99 c 0.62,0.93 2.01,1.58 3.13,1.55 2.48,-0.06 5.07,0.2 7.79,0.79 1.08,0.24 2.05,-0.41 2.16,-1.51 l 1.58,-15.72 c 0.11,-1.11 0.98,-1.56 1.94,-1.01 l 16.18,9.35 c 0.97,0.56 1.83,1.9 1.93,3.02 l 1.62,18 c 0.11,1.11 0.87,2.61 1.69,3.36 3.14,2.89 6.15,6.09 8.98,9.51 0.71,0.86 2.12,1.27 3.18,0.9 l 10.38,-3.63 c 1.05,-0.36 2.36,0.12 2.92,1.09 l 11.89,20.59 c 0.56,0.97 0.32,2.34 -0.52,3.07 l -8.34,7.18 c -0.84,0.72 -1.19,2.16 -0.81,3.2 1.56,4.16 2.82,8.36 3.75,12.54 0.25,1.09 1.16,2.5 2.07,3.14 l 14.78,10.4 c 0.91,0.64 1.65,2.06 1.65,3.18"
         style="fill:#2e3e47;fill-opacity:1;fill-rule:nonzero;stroke:none"
         id="path114" /><path
         d="m 2870.36,3078.42 c 122.77,70.89 222.3,13.42 222.3,-128.34 0,-141.78 -99.53,-314.16 -222.3,-385.06 -122.79,-70.88 -222.32,-13.42 -222.32,128.36 0,141.76 99.53,314.16 222.32,385.04"
         style="fill:#3c515c;fill-opacity:1;fill-rule:nonzero;stroke:none"
         id="path116" /><path
         d="m 2868.8,2966.85 c 39.82,23 72.11,4.35 72.11,-41.64 0,-45.99 -32.29,-101.92 -72.11,-124.92 -39.84,-22.99 -72.13,-4.35 -72.13,41.64 0,46 32.29,101.93 72.13,124.92"
         style="fill:#5fc8ab;fill-opacity:1;fill-rule:nonzero;stroke:none"
         id="path118" /><path
         d="m 3010.92,2721.6 c 0,75.57 -53.05,106.2 -118.48,68.41 l -40.91,-23.62 c -65.43,-37.77 -118.49,-129.66 -118.49,-205.22 v -20.61 c 11.81,-3.93 24.63,-5.87 38.2,-5.9 29.84,-0.06 63.44,9.77 99.12,30.36 53.34,30.8 102.26,80.78 140.56,139.06 v 17.52"
         style="fill:#5fc8ab;fill-opacity:1;fill-rule:nonzero;stroke:none"
         id="path120" /><path
         d="m 2669.69,2354.09 401.32,231.69 c 11.96,6.91 21.65,2.01 21.65,-10.95 0,-12.95 -9.69,-29.05 -21.65,-35.95 l -401.32,-231.7 c -11.95,-6.9 -21.65,-2 -21.65,10.95 0,12.96 9.7,29.05 21.65,35.96"
         style="fill:#5fc8ab;fill-opacity:1;fill-rule:nonzero;stroke:none"
         id="path122" /><path
         d="m 2626.63,2188.36 487.45,281.73 c 11.95,6.91 21.65,2 21.65,-10.95 0,-12.95 -9.7,-29.05 -21.65,-35.95 l -487.45,-281.73 c -11.96,-6.91 -21.65,-2 -21.65,10.95 0,12.95 9.69,29.05 21.65,35.95"
         style="fill:#3c515c;fill-opacity:1;fill-rule:nonzero;stroke:none"
         id="path124" /><path
         d="m 3127.08,2242.98 136.48,78.82 c 7.18,4.14 12.99,2.25 12.99,-4.23 0,-6.48 -5.81,-15.09 -12.99,-19.23 l -136.48,-78.81 c -7.18,-4.14 -13,-2.25 -13,4.23 0,6.47 5.82,15.08 13,19.22"
         style="fill:#2e3e47;fill-opacity:1;fill-rule:nonzero;stroke:none"
         id="path126" /><path
         d="m 2445.18,1896.13 200.42,115.71 c 11.96,6.91 21.65,1.31 21.65,-12.5 v -137.61 c 0,-13.81 -9.68,-30.6 -21.65,-37.5 l -200.42,-115.72 c -11.95,-6.9 -21.65,-1.3 -21.65,12.5 v 137.62 c 0,13.81 9.7,30.6 21.65,37.5"
         style="fill:#5fc8ab;fill-opacity:1;fill-rule:nonzero;stroke:none"
         id="path128" /><path
         d="m 2477.14,1876.9 136.5,78.81 c 7.18,4.14 12.99,2.25 12.99,-4.23 0,-6.48 -5.81,-15.09 -12.99,-19.23 l -136.5,-78.81 c -7.16,-4.14 -12.98,-2.25 -12.98,4.23 0,6.47 5.82,15.08 12.98,19.23"
         style="fill:#faf9f9;fill-opacity:1;fill-rule:nonzero;stroke:none"
         id="path130" /><path
         d="m 2464.16,1807.49 v -40.35 c 0,-8.28 5.82,-11.64 12.98,-7.5 l 136.5,78.81 c 7.18,4.14 12.99,14.21 12.99,22.5 l 0.01,40.35 c 0,8.29 -5.82,11.65 -12.99,7.5 l -136.51,-78.81 c -7.16,-4.14 -12.98,-14.22 -12.98,-22.5"
         style="fill:#faf9f9;fill-opacity:1;fill-rule:nonzero;stroke:none"
         id="path132" /><path
         d="m 2770.14,2083.75 200.42,115.71 c 11.96,6.9 21.65,1.31 21.65,-12.5 v -137.62 c 0,-13.8 -9.69,-30.59 -21.65,-37.5 l -200.42,-115.71 c -11.96,-6.9 -21.65,-1.31 -21.65,12.5 v 137.62 c 0,13.8 9.69,30.59 21.65,37.5"
         style="fill:#5fc8ab;fill-opacity:1;fill-rule:nonzero;stroke:none"
         id="path134" /><path
         d="m 2802.11,2064.51 136.49,78.81 c 7.17,4.14 12.99,2.25 12.99,-4.22 0,-6.48 -5.82,-15.09 -12.99,-19.24 l -136.49,-78.8 c -7.18,-4.15 -12.99,-2.25 -12.99,4.22 0,6.48 5.81,15.08 12.99,19.23"
         style="fill:#faf9f9;fill-opacity:1;fill-rule:nonzero;stroke:none"
         id="path136" /><path
         d="m 2789.12,1995.1 v -40.35 c 0,-8.28 5.81,-11.64 12.99,-7.5 l 136.49,78.81 c 7.17,4.14 12.99,14.22 12.99,22.5 v 40.36 c 0.01,8.28 -5.81,11.64 -12.99,7.5 l -136.49,-78.81 c -7.18,-4.15 -12.99,-14.22 -12.99,-22.51"
         style="fill:#faf9f9;fill-opacity:1;fill-rule:nonzero;stroke:none"
         id="path138" /><path
         d="m 3095.1,2271.37 200.42,115.71 c 11.96,6.91 21.65,1.31 21.65,-12.5 v -137.61 c 0,-13.81 -9.68,-30.6 -21.65,-37.5 L 3095.1,2083.75 c -11.95,-6.9 -21.65,-1.31 -21.65,12.5 v 137.62 c 0,13.81 9.7,30.6 21.65,37.5"
         style="fill:#5fc8ab;fill-opacity:1;fill-rule:nonzero;stroke:none"
         id="path140" /><path
         d="m 3127.07,2252.13 136.49,78.82 c 7.18,4.14 12.99,2.25 12.99,-4.23 0,-6.48 -5.81,-15.09 -12.99,-19.23 l -136.49,-78.81 c -7.17,-4.14 -12.99,-2.25 -12.99,4.22 0,6.48 5.82,15.09 12.99,19.23"
         style="fill:#faf9f9;fill-opacity:1;fill-rule:nonzero;stroke:none"
         id="path142" /><path
         d="m 3114.08,2182.73 v -40.35 c 0,-8.29 5.82,-11.65 12.99,-7.5 l 136.49,78.8 c 7.18,4.15 12.99,14.22 12.99,22.5 l 0.01,40.36 c 0,8.29 -5.82,11.64 -12.99,7.5 l -136.5,-78.81 c -7.17,-4.14 -12.99,-14.22 -12.99,-22.5"
         style="fill:#faf9f9;fill-opacity:1;fill-rule:nonzero;stroke:none"
         id="path144" /><path
         d="m 2466.83,1580.3 807.04,465.95 c 23.92,13.81 43.31,4 43.31,-21.91 0,-25.9 -19.39,-58.09 -43.31,-71.9 l -807.04,-465.95 c -23.91,-13.8 -43.3,-4 -43.3,21.91 0,25.91 19.39,58.1 43.3,71.9"
         style="fill:#d9dad7;fill-opacity:1;fill-rule:nonzero;stroke:none"
         id="path146" /><path
         d="m 2466.83,1392.68 807.04,465.95 c 23.92,13.81 43.31,4 43.31,-21.9 0,-25.91 -19.39,-58.1 -43.31,-71.91 l -807.04,-465.94 c -23.91,-13.81 -43.3,-4 -43.3,21.9 0,25.9 19.39,58.1 43.3,71.9"
         style="fill:#d9dad7;fill-opacity:1;fill-rule:nonzero;stroke:none"
         id="path148" /><path
         d="m 2729.53,1309.83 281.65,162.61 c 11.96,6.91 21.65,1.31 21.65,-12.5 l 0.01,-90.71 c 0,-13.81 -9.7,-30.59 -21.65,-37.5 l -281.66,-162.62 c -11.96,-6.9 -21.65,-1.3 -21.65,12.5 v 90.72 c 0,13.81 9.69,30.59 21.65,37.5"
         style="fill:#5fc8ab;fill-opacity:1;fill-rule:nonzero;stroke:none"
         id="path150" /><path
         d="m 2484.46,1566.52 c -11.21,-6.47 -20.31,-22.22 -20.31,-35.18 0,-12.95 9.1,-18.2 20.31,-11.73 11.22,6.48 20.31,22.23 20.31,35.18 0,12.96 -9.09,18.21 -20.31,11.73"
         style="fill:#faf9f9;fill-opacity:1;fill-rule:nonzero;stroke:none"
         id="path152" /><path
         d="m 2548.81,1603.72 c -11.23,-6.47 -20.32,-22.22 -20.32,-35.18 0,-12.95 9.09,-18.2 20.32,-11.73 11.21,6.48 20.31,22.23 20.31,35.19 0,12.95 -9.1,18.2 -20.31,11.72"
         style="fill:#faf9f9;fill-opacity:1;fill-rule:nonzero;stroke:none"
         id="path154" /><path
         d="m 2613.15,1640.93 c -11.22,-6.48 -20.31,-22.23 -20.31,-35.18 0,-12.96 9.09,-18.21 20.31,-11.74 11.21,6.48 20.3,22.23 20.3,35.19 0,12.95 -9.09,18.2 -20.3,11.73"
         style="fill:#faf9f9;fill-opacity:1;fill-rule:nonzero;stroke:none"
         id="path156" /><path
         d="m 2677.49,1678.13 c -11.21,-6.48 -20.32,-22.23 -20.32,-35.19 0,-12.95 9.11,-18.2 20.32,-11.73 11.22,6.48 20.31,22.23 20.31,35.18 0,12.96 -9.09,18.21 -20.31,11.74"
         style="fill:#faf9f9;fill-opacity:1;fill-rule:nonzero;stroke:none"
         id="path158" /><path
         d="m 2741.83,1715.33 c -11.22,-6.48 -20.31,-22.23 -20.31,-35.19 0,-12.95 9.09,-18.2 20.31,-11.72 11.21,6.47 20.32,22.22 20.32,35.18 0,12.95 -9.11,18.21 -20.32,11.73"
         style="fill:#faf9f9;fill-opacity:1;fill-rule:nonzero;stroke:none"
         id="path160" /><path
         d="m 2806.18,1752.53 c -11.22,-6.48 -20.31,-22.23 -20.31,-35.18 0,-12.96 9.09,-18.21 20.31,-11.73 11.21,6.47 20.3,22.23 20.3,35.18 0,12.95 -9.09,18.21 -20.3,11.73"
         style="fill:#faf9f9;fill-opacity:1;fill-rule:nonzero;stroke:none"
         id="path162" /><path
         d="m 2870.51,1789.73 c -11.21,-6.47 -20.3,-22.23 -20.3,-35.18 0,-12.95 9.09,-18.2 20.3,-11.73 11.22,6.48 20.32,22.23 20.32,35.18 0,12.96 -9.1,18.21 -20.32,11.73"
         style="fill:#faf9f9;fill-opacity:1;fill-rule:nonzero;stroke:none"
         id="path164" /><path
         d="m 2484.46,1378.7 c -11.21,-6.48 -20.31,-22.23 -20.31,-35.18 0,-12.96 9.1,-18.21 20.31,-11.73 11.22,6.48 20.31,22.23 20.31,35.18 0,12.96 -9.09,18.21 -20.31,11.73"
         style="fill:#faf9f9;fill-opacity:1;fill-rule:nonzero;stroke:none"
         id="path166" /><path
         d="m 2548.81,1415.9 c -11.23,-6.47 -20.32,-22.22 -20.32,-35.18 0,-12.95 9.09,-18.21 20.32,-11.73 11.21,6.48 20.31,22.23 20.31,35.18 0,12.96 -9.1,18.21 -20.31,11.73"
         style="fill:#faf9f9;fill-opacity:1;fill-rule:nonzero;stroke:none"
         id="path168" /><path
         d="m 2613.15,1453.1 c -11.22,-6.47 -20.31,-22.22 -20.31,-35.18 0,-12.95 9.09,-18.2 20.31,-11.73 11.21,6.48 20.3,22.23 20.3,35.19 0,12.95 -9.09,18.2 -20.3,11.72"
         style="fill:#faf9f9;fill-opacity:1;fill-rule:nonzero;stroke:none"
         id="path170" /><path
         d="m 2677.49,1490.31 c -11.21,-6.48 -20.32,-22.23 -20.32,-35.18 0,-12.96 9.11,-18.21 20.32,-11.74 11.22,6.48 20.31,22.23 20.31,35.19 0,12.95 -9.09,18.2 -20.31,11.73"
         style="fill:#faf9f9;fill-opacity:1;fill-rule:nonzero;stroke:none"
         id="path172" /><path
         d="m 2741.83,1527.51 c -11.22,-6.48 -20.31,-22.23 -20.31,-35.19 0,-12.95 9.09,-18.2 20.31,-11.73 11.21,6.48 20.32,22.23 20.32,35.18 0,12.96 -9.11,18.21 -20.32,11.74"
         style="fill:#faf9f9;fill-opacity:1;fill-rule:nonzero;stroke:none"
         id="path174" /><path
         d="m 2806.18,1564.71 c -11.22,-6.48 -20.31,-22.23 -20.31,-35.19 0,-12.95 9.09,-18.2 20.31,-11.72 11.21,6.47 20.3,22.22 20.3,35.18 0,12.95 -9.09,18.2 -20.3,11.73"
         style="fill:#faf9f9;fill-opacity:1;fill-rule:nonzero;stroke:none"
         id="path176" /><path
         d="m 2870.51,1601.91 c -11.21,-6.48 -20.3,-22.23 -20.3,-35.18 0,-12.96 9.09,-18.21 20.3,-11.73 11.22,6.47 20.32,22.22 20.32,35.18 0,12.95 -9.1,18.21 -20.32,11.73"
         style="fill:#faf9f9;fill-opacity:1;fill-rule:nonzero;stroke:none"
         id="path178" /><path
         d="m 3979.61,1852.97 c -25.23,0 -51.88,-12.67 -68.27,-22.13 -114.2,-65.94 -210.7,-243.05 -210.7,-386.76 0,-58.16 16.32,-102.31 43.64,-118.09 31.11,-17.95 74.32,1.65 97.31,14.91 114.21,65.94 210.69,243.05 210.69,386.75 0,58.17 -16.31,102.32 -43.63,118.1 -8.94,5.15 -18.88,7.22 -29.04,7.22 z m -206.62,-673.84 c -35.07,0 -68.34,8.65 -98.47,26.04 -72.06,41.61 -113.39,128.69 -113.39,238.91 0,193.82 123.19,416.79 280.46,507.58 84.68,48.88 168.77,54.19 236.81,14.91 72.08,-41.61 113.4,-128.69 113.4,-238.92 0,-193.82 -123.19,-416.78 -280.46,-507.57 -47.18,-27.24 -94.19,-40.95 -138.35,-40.95"
         style="fill:#3c515c;fill-opacity:1;fill-rule:nonzero;stroke:none"
         id="path180" /><path
         d="m 4077.24,1696.62 c 0,108.87 -68.59,149.13 -68.59,149.13 27.32,-15.78 43.63,-59.93 43.63,-118.1 0,-143.7 -96.48,-320.81 -210.69,-386.75 -22.99,-13.26 -66.2,-32.86 -97.31,-14.91 0,0 57.88,-35.92 137.85,7.7 115.78,63.16 195.11,219.23 195.11,362.93"
         style="fill:#2e3e47;fill-opacity:1;fill-rule:nonzero;stroke:none"
         id="path182" /><path
         d="m 3967.21,3057.48 c 0,39.84 -32.29,72.14 -72.13,72.14 -39.83,0 -72.12,-32.3 -72.12,-72.14 v -0.19 -1147.08 c 0,-10.66 7.04,-21.32 21.12,-29.44 28.16,-16.27 73.84,-16.27 102.01,0 14.08,8.12 21.12,18.78 21.12,29.44 v 1147.08 h -0.01 l 0.01,0.19"
         style="fill:#2e3e47;fill-opacity:1;fill-rule:nonzero;stroke:none"
         id="path184" /><path
         d="m 3909.6,2801.16 c 0,26.57 -18.66,58.87 -41.65,72.15 -11.7,6.76 -22.24,7.23 -29.81,2.63 l -0.04,0.06 -177.98,-102.54 -4.3,-2.56 -1.74,-1.03 c -3.08,-2.05 -5.95,-4.41 -8.52,-6.97 -10.77,-10.67 -17.43,-25.53 -17.43,-41.84 0,-22.36 12.41,-41.84 30.67,-51.89 8.4,-4.51 17.93,-7.07 28.19,-7.07 10.16,0 19.79,2.56 28.09,7.07 1.14,0.62 2.26,1.34 3.39,1.95 l 179.11,103.16 -0.02,0.04 c 7.43,4.39 12.04,13.66 12.04,26.84"
         style="fill:#3c515c;fill-opacity:1;fill-rule:nonzero;stroke:none"
         id="path186" /><path
         d="m 3909.6,2513.9 c 0,26.57 -18.66,58.87 -41.65,72.16 -11.7,6.75 -22.24,7.23 -29.81,2.62 l -0.04,0.06 -208.59,-119.79 -4.31,-2.56 -1.75,-1.03 c -3.07,-2.05 -5.94,-4.41 -8.5,-6.97 -10.77,-10.67 -17.43,-25.54 -17.43,-41.84 0,-22.35 12.4,-41.83 30.65,-51.89 8.41,-4.51 17.95,-7.07 28.2,-7.07 10.16,0 19.8,2.56 28.1,7.07 1.13,0.62 2.26,1.33 3.39,1.95 l 209.72,120.41 -0.02,0.05 c 7.43,4.39 12.04,13.66 12.04,26.83"
         style="fill:#3c515c;fill-opacity:1;fill-rule:nonzero;stroke:none"
         id="path188" /></g></g></svg>
