<?xml version="1.0" encoding="UTF-8" standalone="no"?>
<svg
   xmlns:dc="http://purl.org/dc/elements/1.1/"
   xmlns:cc="http://creativecommons.org/ns#"
   xmlns:rdf="http://www.w3.org/1999/02/22-rdf-syntax-ns#"
   xmlns:svg="http://www.w3.org/2000/svg"
   xmlns="http://www.w3.org/2000/svg"
   xmlns:sodipodi="http://sodipodi.sourceforge.net/DTD/sodipodi-0.dtd"
   xmlns:inkscape="http://www.inkscape.org/namespaces/inkscape"
   version="1.1"
   id="svg2"
   xml:space="preserve"
   width="634.23999"
   height="628.15997"
   viewBox="0 0 634.23999 628.15997"
   sodipodi:docname="3918928.eps"><metadata
     id="metadata8"><rdf:RDF><cc:Work
         rdf:about=""><dc:format>image/svg+xml</dc:format><dc:type
           rdf:resource="http://purl.org/dc/dcmitype/StillImage" /></cc:Work></rdf:RDF></metadata><defs
     id="defs6" /><sodipodi:namedview
     pagecolor="#ffffff"
     bordercolor="#666666"
     borderopacity="1"
     objecttolerance="10"
     gridtolerance="10"
     guidetolerance="10"
     inkscape:pageopacity="0"
     inkscape:pageshadow="2"
     inkscape:window-width="640"
     inkscape:window-height="480"
     id="namedview4" /><g
     id="g10"
     inkscape:groupmode="layer"
     inkscape:label="ink_ext_XXXXXX"
     transform="matrix(1.3333333,0,0,-1.3333333,0,628.16)"><g
       id="g12"
       transform="scale(0.1)"><path
         d="m 696.617,402.191 c -928.824,536.258 -928.824,1405.709 0,1941.959 928.823,536.26 2434.743,536.26 3363.573,0 928.82,-536.25 928.82,-1405.701 0,-1941.959 -928.83,-536.261 -2434.75,-536.261 -3363.573,0"
         style="fill:#ededeb;fill-opacity:1;fill-rule:nonzero;stroke:none"
         id="path14" /><path
         d="M 1955.13,300.992 537.094,1120.27 c -55.328,31.94 -55.328,84.2 0,116.14 L 2833.14,2563 c 22.77,13.15 60.05,13.15 82.83,0 L 4368.8,1723.56 c 29.22,-16.88 29.21,-59.06 -0.01,-75.93 L 2037.96,300.992 c -22.78,-13.152 -60.05,-13.152 -82.83,0"
         style="fill:#dadbd8;fill-opacity:1;fill-rule:nonzero;stroke:none"
         id="path16" /><path
         d="m 4092.92,932.539 c 205.25,-118.5 205.25,-310.617 0,-429.117 -205.24,-118.5 -538,-118.5 -743.25,0 -205.24,118.5 -205.24,310.617 0,429.117 205.25,118.501 538.01,118.501 743.25,0"
         style="fill:#dadbd8;fill-opacity:1;fill-rule:nonzero;stroke:none"
         id="path18" /><path
         d="m 683.477,1596.29 c 0,0 -2.993,213.47 -91.692,387.74 -88.695,174.28 -222.793,290.89 -356.347,314.93 -133.555,24.04 -254.6021,-88.99 -119.032,-188.37 135.567,-99.39 382.832,-211.65 468.93,-541.47 l 98.141,27.17"
         style="fill:#26b6a6;fill-opacity:1;fill-rule:nonzero;stroke:none"
         id="path20" /><path
         d="m 526.563,1818.73 c -5.27,2.98 -10.723,5.69 -16.176,8.26 -22.907,10.78 -46.657,19.77 -70.961,26.86 -106.211,125.54 -237.067,193.72 -323.02,256.74 -42.0583,30.83 -59.4255,62.97 -59.3747,91.93 0.0976,55.77 64.7387,99.71 141.9027,99.71 11.929,0 24.171,-1.05 36.504,-3.27 103.933,-18.71 208.187,-93.47 291.125,-207.85 V 1942.3 c -119.555,178 -270.051,271.18 -354.223,299.6 -0.766,0.26 -1.547,0.39 -2.317,0.39 -3,0 -5.812,-1.92 -6.839,-4.93 -1.278,-3.79 0.746,-7.88 4.535,-9.16 85.187,-28.75 239.797,-125.47 358.844,-312.15 v -97.32"
         style="fill:#19b19d;fill-opacity:1;fill-rule:nonzero;stroke:none"
         id="path22" /><path
         d="m 649.461,1655.04 1.465,0.27 c 3.836,1.13 6.023,5.15 4.89,8.97 -107.238,364 -363.136,537 -483.476,577.62 -3.762,1.3 -7.867,-0.77 -9.156,-4.54 -1.278,-3.79 0.746,-7.88 4.535,-9.16 117.871,-39.79 368.683,-209.72 474.238,-568 0.988,-3.35 4.172,-5.43 7.504,-5.16"
         style="fill:#ffffff;fill-opacity:1;fill-rule:nonzero;stroke:none"
         id="path24" /><path
         d="m 697.02,1394.84 c -49.579,-28.52 -78.004,-46.95 -168.954,-54.62 -54.253,-4.57 -127.668,3.13 -190.98,25.94 -16.875,6.08 -42.961,19.39 -28.297,35.63 7.578,8.39 96.777,22.54 128.688,60.08 -37.352,-9.99 -86.457,-21.34 -125.11,-22.18 -38.648,-0.84 -78.851,8.42 -108.504,33.22 -29.445,24.62 -45.363,61.37 -60.273,96.74 -5.09,12.06 -9.918,26.87 -2.106,37.38 4.965,6.69 13.59,9.32 21.61,11.55 33.785,9.41 67.57,18.81 101.355,28.22 22.047,4.7 6.492,19.27 -1.851,20.51 -14.473,2.14 -28.321,2.1 -36.743,1.65 -38.703,-2.07 -81.441,-9.36 -113.035,13.08 -18.9098,13.44 -30.0544,35.69 -34.7927,58.4 -1.6718,8 -8.3281,112.44 -3.7343,113.69 25.1523,6.85 51.496,10.5 77.328,13.46 24.512,2.81 48.395,3.94 72.813,7.24 27.566,3.73 55.39,5.55 83.207,5.46 9.437,-0.03 19.41,-0.44 27.394,-5.47 10.973,-6.92 15.324,-20.76 16.723,-33.65 1.394,-12.89 0.726,-26.25 5.211,-38.42 11.875,1.03 15.754,16.46 15.449,28.38 -0.305,11.92 -0.078,26.78 10.676,31.92 5.457,2.61 11.883,1.56 17.804,0.35 37.77,-7.74 74.61,-19.99 109.489,-36.41 15.949,-7.52 31.883,-16.2 43.363,-29.59 16.949,-19.76 21.953,-47.17 22.105,-73.21 0.149,-26.03 -3.886,-52.05 -2.187,-78.03 20.367,18.19 48.703,73.51 50.93,100.73 43.804,-28.17 69.765,-86.21 77.922,-165.58 5.378,-52.36 4.062,-121.34 -3.215,-174.43 -0.25,-1.83 -0.664,-11.1 -2.285,-12.04"
         style="fill:#26b6a6;fill-opacity:1;fill-rule:nonzero;stroke:none"
         id="path26" /><path
         d="m 496.625,1338.96 c -49.273,0 -107.781,8.55 -159.539,27.2 -13.414,4.83 -32.648,14.23 -32.609,26.04 0.011,3.05 1.304,6.26 4.312,9.59 7.578,8.39 96.777,22.54 128.688,60.08 v 0 0 c -37.352,-9.99 -86.457,-21.34 -125.11,-22.18 -1.594,-0.03 -3.195,-0.05 -4.797,-0.05 -37.156,0 -75.277,9.49 -103.707,33.27 -29.445,24.62 -45.363,61.37 -60.273,96.74 -3.16,7.49 -6.223,16.04 -6.215,23.97 0.004,4.83 1.148,9.43 4.109,13.41 4.965,6.69 13.59,9.32 21.61,11.55 33.785,9.41 67.57,18.81 101.355,28.22 8.356,1.78 11.309,4.98 11.305,8.33 -0.008,5.5 -7.973,11.41 -13.156,12.18 -9.774,1.45 -19.262,1.9 -26.989,1.9 -3.714,0 -7.019,-0.11 -9.754,-0.25 -16.828,-0.9 -34.421,-2.79 -51.531,-2.79 -22.234,0 -43.648,3.19 -61.504,15.87 -18.9098,13.44 -30.0544,35.69 -34.7927,58.4 -1.2539,6.01 -5.3242,66.4 -5.3242,96.64 -0.0039,10.03 0.4453,16.74 1.5899,17.05 25.1523,6.85 51.496,10.5 77.328,13.46 24.512,2.81 48.395,3.94 72.813,7.24 26.894,3.63 54.035,5.46 81.171,5.46 0.68,0 1.36,0 2.036,0 9.437,-0.03 19.41,-0.44 27.394,-5.47 10.973,-6.92 15.324,-20.76 16.723,-33.65 1.394,-12.89 0.726,-26.25 5.211,-38.42 11.457,0.99 15.472,15.39 15.465,27.11 0,0.43 -0.004,0.85 -0.016,1.27 -0.039,1.54 -0.07,3.12 -0.07,4.73 0,10.86 1.379,22.71 10.746,27.19 2.488,1.19 5.176,1.62 7.926,1.62 3.281,0 6.656,-0.61 9.878,-1.27 37.77,-7.74 74.61,-19.99 109.489,-36.41 5.453,-2.57 10.906,-5.28 16.176,-8.26 l 0.003,-369.58 c 0,-36.99 0.059,-63.64 28.414,-83.64 10.836,-7.64 21.942,-13.7 33.887,-16.91 -16.902,-3.55 -36.644,-6.34 -60.801,-8.38 -9.902,-0.83 -20.441,-1.26 -31.441,-1.26"
         style="fill:#06ab91;fill-opacity:1;fill-rule:nonzero;stroke:none"
         id="path28" /><path
         d="m 688.828,1404.72 c -2.168,0 -4.258,1.18 -5.332,3.23 -141.855,272.41 -455.703,387.21 -531.984,403.04 -3.242,0.67 -5.332,3.85 -4.657,7.1 0.684,3.24 3.915,5.25 7.098,4.66 77.461,-16.08 396.145,-132.65 540.188,-409.25 1.535,-2.94 0.39,-6.57 -2.551,-8.1 -0.887,-0.46 -1.832,-0.68 -2.762,-0.68"
         style="fill:#ffffff;fill-opacity:1;fill-rule:nonzero;stroke:none"
         id="path30" /><path
         d="m 276.582,1561.69 c -3.098,0 -5.723,2.38 -5.977,5.53 -0.253,3.3 2.215,6.19 5.516,6.45 156.574,12.3 207.207,73.6 207.707,74.22 2.051,2.6 5.82,3.01 8.418,0.97 2.59,-2.06 3.035,-5.81 0.996,-8.41 -2.121,-2.69 -53.699,-65.98 -216.183,-78.75 l -0.477,-0.01"
         style="fill:#ffffff;fill-opacity:1;fill-rule:nonzero;stroke:none"
         id="path32" /><path
         d="m 4478.75,2321.37 c -69.39,-75.9 -196.69,-200.8 -270.7,-321.39 l -0.5,-0.91 c -28.89,-47.3 -49.6,-93.89 -55.3,-136.59 l -5.19,-77.1 -31.7,18.29 -5.31,3.1 -13.09,7.5 c -18.77,10.88 -30.56,30.76 -31.14,52.44 -5.09,188.01 45.14,347.82 93.74,444.55 66.5,132.1 191.1,266.81 299.4,253.61 100.69,-12.3 116.59,-137.7 19.79,-243.5"
         style="fill:#26b6a6;fill-opacity:1;fill-rule:nonzero;stroke:none"
         id="path34" /><path
         d="m 4188.22,1969.46 -56.55,32.66 c 52.92,230 191.91,424.08 295.98,489.85 3.01,1.9 3.91,5.91 2,8.91 -1.22,2 -3.34,3.13 -5.52,3.13 -1.18,0 -2.38,-0.33 -3.47,-1.04 C 4315.28,2436.32 4174.62,2240.8 4120,2008.86 l -44.37,25.62 c 16.5,114.43 50.6,210.44 83.93,276.78 63.46,126.06 179.84,254.51 284.46,254.51 5.02,0 9.99,-0.29 14.94,-0.9 54.87,-6.7 84.56,-46.98 84.56,-99.38 0,-43.76 -20.72,-95.97 -64.77,-144.12 -69.39,-75.9 -196.69,-200.8 -270.7,-321.39 l -0.5,-0.91 v 0 c -6.62,-9.61 -13.07,-19.49 -19.33,-29.61"
         style="fill:#19b19d;fill-opacity:1;fill-rule:nonzero;stroke:none"
         id="path36" /><path
         d="m 4427.65,2491.97 c -132.6,-83.8 -321.89,-375.9 -317.6,-685.2 l -13.09,7.5 c -1.11,311.2 189.79,604 323.7,688.7 3.09,2.01 7.1,1.01 8.99,-2.09 1.91,-3 1.01,-7.01 -2,-8.91"
         style="fill:#ffffff;fill-opacity:1;fill-rule:nonzero;stroke:none"
         id="path38" /><path
         d="m 4557.36,2073.58 c -23.11,-62.7 -154.9,-117.1 -252.21,-207.61 -25.57,-23.83 -47.85,-48.4 -66.73,-72.52 -18.83,-24.07 -52.51,-30.48 -78.96,-15.18 l -11.6,6.71 -0.8,0.4 -31.7,18.29 c 18.8,70.8 52.59,137.9 92.19,195.4 l 0.5,0.91 c 64.41,93.4 143.91,160.9 199.41,176.19 109.1,30 177.59,-27.3 149.9,-102.59"
         style="fill:#26b6a6;fill-opacity:1;fill-rule:nonzero;stroke:none"
         id="path40" /><path
         d="m 4314.36,1874.35 c -10.64,19.77 -26.54,37.61 -44.32,47.86 l -81.82,47.25 c 6.26,10.12 12.71,20 19.33,29.61 l 0.5,0.91 c 64.41,93.4 143.91,160.9 199.41,176.19 20.23,5.57 39.07,8.13 56.16,8.13 61.2,0 99.92,-32.84 99.9,-78.22 -0.01,-10.27 -2,-21.18 -6.16,-32.5 -22.39,-60.75 -146.78,-113.69 -243,-199.23"
         style="fill:#06ab91;fill-opacity:1;fill-rule:nonzero;stroke:none"
         id="path42" /><path
         d="m 4464.65,2111.28 c -79.69,-22.5 -234.1,-119.71 -305.19,-333.01 l -11.6,6.71 c 72.1,215.9 225.59,314.09 313.3,338.8 3.59,1 7,-1.01 7.99,-4.51 1,-3.5 -0.99,-7.1 -4.5,-7.99"
         style="fill:#ffffff;fill-opacity:1;fill-rule:nonzero;stroke:none"
         id="path44" /><path
         d="m 609.395,1271.26 c 0.003,-34.7 25.976,-77.82 58.007,-96.32 L 1930.27,445.68 c 32.03,-18.5 83.97,-18.5 116.01,0 l 2223.76,1283.89 c 32.03,18.5 58.01,61.62 58.01,96.32 0,34.71 -25.97,77.83 -58.01,96.32 l -1262.86,729.26 c -32.04,18.5 -83.97,18.5 -116.01,0 L 667.391,1367.58 c -32.036,-18.49 -58,-61.62 -57.996,-96.32"
         style="fill:#33535f;fill-opacity:1;fill-rule:nonzero;stroke:none"
         id="path46" /><path
         d="m 4328.09,1825.88 c 0,-34.73 -26,-77.78 -58.03,-96.29 L 2046.25,445.641 c -16.01,-9.153 -37.02,-13.84 -57.92,-13.84 v 125.621 c 20.9,0 41.91,4.68 57.92,13.937 L 4270.06,1855.21 c 28.06,16.17 31.57,41.19 10.52,59.6 26.95,-20.95 47.51,-58.13 47.51,-88.93"
         style="fill:#273e47;fill-opacity:1;fill-rule:nonzero;stroke:none"
         id="path48" /><path
         d="M 1988.3,557.359 V 431.852 c -21.03,0 -42.06,4.546 -58,13.789 L 667.379,1174.94 c -32.02,18.48 -58.008,61.62 -58.008,96.31 0,32.56 22.91,72.47 52.113,92.56 -25.992,-18.61 -23.98,-45.94 5.895,-63.22 L 1930.3,571.301 c 15.94,-9.25 36.97,-13.942 58,-13.942"
         style="fill:#17282f;fill-opacity:1;fill-rule:nonzero;stroke:none"
         id="path50" /><path
         d="m 554.98,1365.51 c -28.355,20 -28.414,46.65 -28.414,83.64 l -0.015,1868.76 c 0,36.99 25.972,81.97 58.004,100.46 L 2808.33,4702.26 c 32.03,18.5 61.58,5.1 91.64,-12.25 30.04,-17.36 49.2,-32.32 49.2,-69.31 V 2751.94 c 0,-36.99 -25.96,-81.97 -58,-100.47 L 667.391,1367.58 c -48.489,-32.69 -81.547,-23.84 -112.411,-2.07"
         style="fill:#273e47;fill-opacity:1;fill-rule:nonzero;stroke:none"
         id="path52" /><path
         d="m 667.391,1367.56 c -48.473,-32.64 -81.594,-23.81 -112.407,-2.02 -28.32,19.97 -28.414,46.65 -28.414,83.61 v 1868.73 c 0,18.52 6.532,38.97 16.895,57.11 l 82.844,-48.19 c -10.465,-18.04 -16.895,-38.49 -16.895,-56.92 V 1401.06 c 0,-36.96 25.918,-51.93 57.977,-33.5"
         style="fill:#17282f;fill-opacity:1;fill-rule:nonzero;stroke:none"
         id="path54" /><path
         d="m 2949.19,4620.75 c 0,36.91 -25.99,51.89 -58.02,33.48 L 667.359,3370.28 c -16.011,-9.26 -30.574,-25.17 -40.972,-43.36 l -82.774,48.14 h -0.105 c 10.504,18.2 25.062,34.11 41.078,43.36 L 2808.29,4702.28 c 32.03,18.51 61.58,5.11 91.63,-12.25 30.05,-17.37 49.27,-32.37 49.27,-69.28"
         style="fill:#33535f;fill-opacity:1;fill-rule:nonzero;stroke:none"
         id="path56" /><path
         d="M 698.594,3303.39 2842.59,4540.91 c 19.23,11.09 34.81,2.09 34.81,-20.1 V 2806.75 c 0,-22.19 -15.58,-49.18 -34.81,-60.28 L 698.594,1508.98 c -19.227,-11.1 -34.805,-2.1 -34.805,20.09 v 1714.04 c 0,22.19 15.578,49.18 34.805,60.28"
         style="fill:#17282f;fill-opacity:1;fill-rule:nonzero;stroke:none"
         id="path58" /><path
         d="m 698.594,3303.39 c -19.227,-11.1 -34.805,-38.09 -34.805,-60.28 V 1539.41 L 2795.18,2769.62 c 19.22,11.1 34.8,38.09 34.8,60.28 V 4533.63 L 698.594,3303.39"
         style="fill:#26b6a6;fill-opacity:1;fill-rule:nonzero;stroke:none"
         id="path60" /><path
         d="m 663.789,1539.41 v 1703.7 c 0,22.19 15.578,49.18 34.805,60.28 L 2829.98,4533.63 v -598.18 l -922.08,-532.36 0.01,-540.31 116.98,-67.52 805.09,464.81 V 2829.9 c 0,-22.19 -15.58,-49.18 -34.8,-60.28 L 663.789,1539.41"
         style="fill:#94dbd1;fill-opacity:1;fill-rule:nonzero;stroke:none"
         id="path62" /><path
         d="m 827.91,1364.16 2064.15,1191.72 c 16.01,9.24 41.98,9.24 58,-0.01 l 60.05,-31.55 c 16.02,-9.25 16.02,-24.24 0,-33.48 L 945.656,1299.31 c -16.011,-9.25 -41.984,-9.25 -58.004,0 l -59.738,31.36 c -16.019,9.24 -16.019,24.24 -0.004,33.49"
         style="fill:#273e47;fill-opacity:1;fill-rule:nonzero;stroke:none"
         id="path64" /><path
         d="M 989.809,1267.89 3053.93,2459.61 c 16.02,9.25 39.75,10.55 53,2.9 l 537.25,-310.21 c 13.27,-7.65 11.02,-21.35 -5,-30.59 L 1577.47,931.602 c -16.03,-9.25 -39.78,-10.582 -53.07,-2.981 L 984.863,1237.37 c -13.289,7.61 -11.07,21.27 4.946,30.52"
         style="fill:#17282f;fill-opacity:1;fill-rule:nonzero;stroke:none"
         id="path66" /><path
         d="m 2070.65,1787.54 c 2.25,-1.3 6.3,-1.07 9.04,0.52 l 64.63,37.31 c 2.75,1.59 3.16,3.92 0.9,5.22 l -57.01,32.92 c -2.24,1.3 -6.3,1.06 -9.04,-0.52 l -64.63,-37.32 c -2.74,-1.58 -3.14,-3.92 -0.89,-5.21 l 57,-32.92 m 775.51,471.89 c 2.24,-1.3 6.29,-1.07 9.04,0.51 l 64.63,37.32 c 2.74,1.58 3.14,3.92 0.89,5.22 l -15.17,8.76 c -2.26,1.3 -6.3,1.07 -9.05,-0.52 l -64.63,-37.31 c -2.73,-1.59 -3.14,-3.93 -0.89,-5.22 l 15.18,-8.76 m 492.21,-169.38 64.63,37.31 c 2.76,1.59 3.16,3.92 0.91,5.22 l -57.01,32.91 c -2.25,1.31 -6.3,1.07 -9.04,-0.51 l -64.63,-37.31 c -2.75,-1.59 -3.15,-3.93 -0.9,-5.22 l 57,-32.92 c 2.25,-1.3 6.3,-1.07 9.04,0.52 m -183.55,209.3 c 2.25,-1.29 6.3,-1.06 9.04,0.52 l 64.63,37.31 c 2.75,1.59 3.15,3.93 0.91,5.22 l -57.01,32.92 c -2.25,1.3 -6.3,1.07 -9.05,-0.51 l -64.62,-37.32 c -2.76,-1.59 -3.16,-3.93 -0.9,-5.22 l 57,-32.92 m -119.76,69.15 c 2.26,-1.3 6.3,-1.07 9.05,0.51 l 64.63,37.31 c 2.74,1.59 3.15,3.93 0.89,5.22 l -15.17,8.77 c -2.25,1.29 -6.3,1.07 -9.04,-0.52 l -64.63,-37.31 c -2.75,-1.58 -3.15,-3.93 -0.9,-5.23 l 15.17,-8.75 m -283.37,-163.61 c 2.25,-1.3 6.3,-1.07 9.05,0.52 l 64.63,37.32 c 2.74,1.58 3.14,3.91 0.89,5.21 l -15.17,8.76 c -2.25,1.3 -6.3,1.07 -9.03,-0.51 l -64.63,-37.32 c -2.76,-1.58 -3.16,-3.92 -0.91,-5.22 l 15.17,-8.76 m -492.13,-308.28 c 2.25,-1.3 6.3,-1.07 9.05,0.52 l 64.63,37.31 c 2.74,1.58 3.14,3.92 0.89,5.22 l -57,32.91 c -2.25,1.3 -6.3,1.07 -9.04,-0.51 l -64.63,-37.32 c -2.75,-1.58 -3.15,-3.92 -0.9,-5.22 l 57,-32.91 m -94.45,-54.54 c 2.25,-1.29 6.3,-1.06 9.04,0.52 l 64.63,37.31 c 2.74,1.59 3.15,3.93 0.9,5.23 l -57.01,32.91 c -2.25,1.3 -6.3,1.07 -9.04,-0.52 L 2109,1880.21 c -2.75,-1.59 -3.15,-3.92 -0.9,-5.22 l 57.01,-32.92 m 398.7,230.2 c 2.25,-1.31 6.3,-1.07 9.06,0.52 l 64.61,37.31 c 2.75,1.58 3.16,3.92 0.9,5.21 l -57.01,32.92 c -2.24,1.3 -6.29,1.07 -9.03,-0.51 l -64.63,-37.32 c -2.75,-1.59 -3.15,-3.92 -0.91,-5.22 l 57.01,-32.91 m -209.79,-121.13 c 2.25,-1.29 6.3,-1.07 9.05,0.52 l 64.63,37.31 c 2.73,1.58 3.14,3.93 0.89,5.23 l -57,32.91 c -2.25,1.3 -6.3,1.07 -9.05,-0.53 l -64.63,-37.31 c -2.74,-1.58 -3.15,-3.92 -0.89,-5.22 l 57,-32.91 m 304.26,175.66 c 2.24,-1.3 6.3,-1.06 9.03,0.52 l 64.63,37.31 c 2.75,1.59 3.15,3.93 0.91,5.22 l -57.02,32.92 c -2.25,1.3 -6.29,1.06 -9.04,-0.52 l -64.63,-37.32 c -2.74,-1.58 -3.15,-3.92 -0.9,-5.22 l 57.02,-32.91 m -188.92,-109.06 c 2.25,-1.3 6.3,-1.08 9.04,0.51 l 64.63,37.31 c 2.75,1.58 3.15,3.93 0.9,5.23 l -57.01,32.9 c -2.25,1.31 -6.3,1.08 -9.04,-0.51 l -64.63,-37.31 c -2.75,-1.59 -3.15,-3.93 -0.9,-5.23 l 57.01,-32.9 m 471.25,296.22 c 2.25,-1.3 6.3,-1.07 9.04,0.52 l 64.63,37.31 c 2.75,1.59 3.15,3.92 0.9,5.22 l -15.18,8.77 c -2.24,1.3 -6.3,1.06 -9.04,-0.53 l -64.63,-37.31 c -2.73,-1.58 -3.14,-3.92 -0.9,-5.22 l 15.18,-8.76 m -521.94,-754.91 64.64,37.32 c 2.73,1.58 3.14,3.92 0.89,5.22 l -57.01,32.91 c -2.25,1.3 -6.3,1.07 -9.04,-0.52 l -64.63,-37.31 c -2.75,-1.58 -3.15,-3.92 -0.9,-5.22 l 57,-32.92 c 2.26,-1.29 6.3,-1.06 9.05,0.52 m -188.91,-109.06 64.62,37.31 c 2.75,1.58 3.16,3.92 0.91,5.22 l -57.01,32.92 c -2.25,1.29 -6.3,1.06 -9.05,-0.53 l -64.63,-37.31 c -2.74,-1.58 -3.15,-3.92 -0.89,-5.22 l 57.01,-32.92 c 2.25,-1.29 6.3,-1.06 9.04,0.53 m 94.45,54.53 64.63,37.31 c 2.75,1.59 3.16,3.93 0.9,5.23 l -57.01,32.91 c -2.24,1.3 -6.29,1.06 -9.04,-0.52 l -64.63,-37.31 c -2.74,-1.59 -3.15,-3.92 -0.9,-5.22 l 57.01,-32.92 c 2.25,-1.3 6.3,-1.06 9.04,0.52 m -377.82,-218.13 64.63,37.31 c 2.74,1.58 3.15,3.92 0.89,5.22 l -57,32.91 c -2.25,1.3 -6.3,1.07 -9.05,-0.51 L 1881.24,1324 c -2.75,-1.58 -3.15,-3.92 -0.9,-5.22 l 57,-32.92 c 2.26,-1.29 6.3,-1.06 9.05,0.53 m 188.91,109.07 64.63,37.31 c 2.75,1.58 3.15,3.92 0.9,5.21 l -57.01,32.92 c -2.25,1.3 -6.29,1.07 -9.04,-0.52 l -64.63,-37.31 c -2.74,-1.58 -3.15,-3.93 -0.9,-5.23 l 57.01,-32.91 c 2.25,-1.3 6.3,-1.07 9.04,0.53 m -94.45,-54.54 64.63,37.31 c 2.74,1.59 3.14,3.92 0.89,5.22 l -57.01,32.91 c -2.24,1.31 -6.29,1.07 -9.04,-0.51 l -64.63,-37.32 c -2.74,-1.58 -3.14,-3.92 -0.9,-5.22 l 57.02,-32.91 c 2.24,-1.3 6.29,-1.07 9.04,0.52 m 890.78,518.99 c 2.24,-1.3 6.29,-1.07 9.04,0.52 l 64.63,37.32 c 2.74,1.58 3.14,3.92 0.9,5.21 l -57.02,32.92 c -2.24,1.3 -6.29,1.06 -9.04,-0.52 l -64.63,-37.31 c -2.74,-1.59 -3.14,-3.93 -0.9,-5.23 l 57.02,-32.91 m -418.5,-246.32 64.63,37.31 c 2.74,1.59 3.14,3.92 0.9,5.22 l -57.02,32.92 c -2.24,1.3 -6.29,1.06 -9.04,-0.52 l -64.63,-37.32 c -2.74,-1.58 -3.14,-3.92 -0.89,-5.21 l 57.01,-32.92 c 2.24,-1.3 6.29,-1.07 9.04,0.52 m 546.68,419.15 64.63,37.32 c 2.74,1.58 3.15,3.92 0.9,5.21 l -57.01,32.92 c -2.25,1.3 -6.3,1.06 -9.04,-0.52 l -64.63,-37.31 c -2.75,-1.59 -3.15,-3.92 -0.91,-5.22 l 57.02,-32.92 c 2.24,-1.3 6.3,-1.06 9.04,0.52 m 80.61,-52.28 c 2.25,-1.3 6.3,-1.06 9.05,0.52 l 64.62,37.31 c 2.75,1.59 3.15,3.92 0.9,5.23 l -57.01,32.91 c -2.24,1.3 -6.3,1.06 -9.04,-0.52 l -64.63,-37.32 c -2.74,-1.58 -3.14,-3.92 -0.9,-5.21 l 57.01,-32.92 m -532.84,-312.33 188.92,109.06 c 2.74,1.59 3.14,3.93 0.9,5.22 l -57.01,32.92 c -2.25,1.29 -6.29,1.07 -9.05,-0.52 l -188.9,-109.07 c -2.76,-1.58 -3.16,-3.92 -0.9,-5.23 l 57,-32.9 c 2.26,-1.3 6.3,-1.08 9.04,0.52 m 248.24,350.36 64.61,37.31 c 2.76,1.58 3.16,3.93 0.91,5.23 l -57.01,32.91 c -2.25,1.3 -6.3,1.07 -9.04,-0.52 l -64.63,-37.31 c -2.76,-1.59 -3.15,-3.93 -0.9,-5.23 l 57,-32.9 c 2.26,-1.31 6.3,-1.07 9.06,0.51 m 388.1,17.02 64.63,37.31 c 2.74,1.6 3.15,3.93 0.9,5.23 l -57.01,32.91 c -2.25,1.3 -6.29,1.07 -9.05,-0.52 l -64.63,-37.31 c -2.73,-1.58 -3.14,-3.92 -0.89,-5.22 l 57.01,-32.91 c 2.24,-1.3 6.3,-1.07 9.04,0.51 m -205.08,-151.39 c -2.24,1.3 -6.3,1.06 -9.04,-0.53 l -64.63,-37.31 c -2.74,-1.58 -3.14,-3.92 -0.9,-5.22 l 57.01,-32.91 c 2.25,-1.3 6.3,-1.06 9.05,0.52 l 64.62,37.31 c 2.75,1.59 3.14,3.92 0.89,5.22 l -57,32.92 m -338.05,-195.18 c -2.25,1.3 -6.29,1.07 -9.05,-0.52 l -79.54,-45.92 c -2.74,-1.59 -3.14,-3.93 -0.9,-5.22 l 57.01,-32.92 c 2.25,-1.3 6.3,-1.06 9.05,0.52 l 79.54,45.92 c 2.74,1.59 3.14,3.93 0.9,5.23 l -57.01,32.91 m -999.25,-576.92 c -2.25,1.3 -6.3,1.07 -9.05,-0.51 l -79.54,-45.93 c -2.75,-1.58 -3.14,-3.92 -0.89,-5.22 l 57,-32.92 c 2.25,-1.3 6.3,-1.06 9.05,0.52 l 79.54,45.93 c 2.75,1.59 3.15,3.92 0.9,5.22 l -57.01,32.91 m 780.51,450.63 c -2.25,1.3 -6.3,1.06 -9.05,-0.52 l -79.54,-45.92 c -2.74,-1.59 -3.15,-3.93 -0.9,-5.23 l 57.01,-32.91 c 2.24,-1.3 6.29,-1.07 9.05,0.52 l 79.54,45.93 c 2.74,1.58 3.14,3.91 0.89,5.21 l -57,32.92 m -671.14,-387.48 c -2.25,1.3 -6.3,1.06 -9.04,-0.52 l -79.55,-45.92 c -2.74,-1.58 -3.15,-3.93 -0.9,-5.23 l 57.01,-32.91 c 2.25,-1.3 6.3,-1.07 9.05,0.52 l 79.55,45.93 c 2.73,1.58 3.14,3.91 0.89,5.21 l -57.01,32.92 m 561.77,324.33 c -2.25,1.31 -6.3,1.07 -9.04,-0.51 L 1831.7,1191.87 c -2.75,-1.59 -3.16,-3.92 -0.9,-5.22 l 57.01,-32.91 c 2.24,-1.3 6.29,-1.07 9.04,0.51 l 531.93,307.11 c 2.76,1.6 3.16,3.93 0.9,5.23 l -57,32.91 m 457.36,264.07 c -2.24,1.29 -6.3,1.06 -9.04,-0.52 l -99.42,-57.41 c -2.75,-1.58 -3.16,-3.92 -0.91,-5.22 l 57.01,-32.91 c 2.25,-1.3 6.3,-1.07 9.04,0.51 l 99.44,57.41 c 2.74,1.59 3.14,3.92 0.9,5.22 l -57.02,32.92 m -238.62,-137.78 c -2.25,1.31 -6.3,1.07 -9.04,-0.51 l -79.54,-45.93 c -2.76,-1.58 -3.16,-3.92 -0.9,-5.22 l 57,-32.91 c 2.26,-1.3 6.3,-1.07 9.04,0.51 l 79.54,45.93 c 2.75,1.58 3.16,3.93 0.9,5.22 l -57,32.91 m 996.6,509.56 -146.67,84.68 c -2.24,1.3 -6.3,1.07 -9.04,-0.52 l -64.63,-37.31 c -2.74,-1.59 -3.14,-3.93 -0.9,-5.22 l 146.67,-84.68 c 2.25,-1.3 6.29,-1.06 9.04,0.51 l 64.63,37.32 c 2.75,1.59 3.15,3.92 0.9,5.22 m -151.46,-21.62 c -2.26,1.31 -6.3,1.07 -9.05,-0.51 l -64.63,-37.32 c -2.74,-1.58 -3.15,-3.93 -0.89,-5.22 l 57,-32.91 c 2.25,-1.3 6.3,-1.07 9.04,0.52 l 64.63,37.31 c 2.75,1.59 3.15,3.92 0.9,5.22 l -57,32.91 m -492.17,-284.15 c -2.26,1.3 -6.3,1.07 -9.04,-0.52 l -64.63,-37.31 c -2.76,-1.59 -3.16,-3.93 -0.9,-5.22 l 57,-32.92 c 2.26,-1.3 6.3,-1.06 9.04,0.52 l 64.63,37.32 c 2.75,1.58 3.16,3.92 0.9,5.21 l -57,32.92 m -1092.46,-597.73 64.63,37.31 c 2.75,1.59 3.15,3.93 0.9,5.23 l -57.01,32.91 c -2.25,1.3 -6.29,1.07 -9.04,-0.52 l -64.63,-37.32 c -2.74,-1.58 -3.14,-3.92 -0.9,-5.21 l 57.01,-32.92 c 2.25,-1.3 6.3,-1.06 9.04,0.52 m 1281.37,706.8 c -2.25,1.3 -6.29,1.07 -9.05,-0.52 l -64.63,-37.31 c -2.74,-1.59 -3.14,-3.92 -0.9,-5.23 l 57.02,-32.91 c 2.24,-1.3 6.3,-1.07 9.04,0.52 l 64.63,37.31 c 2.74,1.59 3.14,3.93 0.9,5.23 l -57.01,32.91 m 208.79,120.55 c -2.24,1.3 -6.3,1.07 -9.04,-0.52 l -159.08,-91.85 c -2.74,-1.58 -3.15,-3.92 -0.9,-5.22 l 57.01,-32.91 c 2.25,-1.3 6.3,-1.07 9.05,0.52 l 159.08,91.85 c 2.74,1.58 3.14,3.92 0.9,5.22 l -57.02,32.91 M 1421.72,1412.88 c 2.25,-1.3 6.3,-1.07 9.04,0.52 l 64.63,37.31 c 2.74,1.58 3.15,3.93 0.9,5.22 l -57.01,32.91 c -2.25,1.3 -6.3,1.07 -9.04,-0.52 l -64.63,-37.31 c -2.74,-1.59 -3.14,-3.92 -0.9,-5.22 l 57.01,-32.91 m 94.46,54.53 c 2.25,-1.3 6.3,-1.06 9.04,0.52 l 64.63,37.31 c 2.75,1.59 3.14,3.93 0.9,5.23 l -57.01,32.91 c -2.25,1.3 -6.3,1.06 -9.04,-0.52 l -64.63,-37.31 c -2.75,-1.59 -3.15,-3.92 -0.9,-5.22 l 57.01,-32.92 m 75.99,-418.53 c -2.25,1.29 -6.3,1.07 -9.05,-0.52 l -99.42,-57.411 c -2.75,-1.578 -3.15,-3.918 -0.9,-5.219 l 57.01,-32.91 c 2.25,-1.3 6.29,-1.07 9.04,0.52 l 99.43,57.4 c 2.75,1.59 3.15,3.92 0.89,5.23 l -57,32.91 m 59.56,496.79 c 2.25,-1.29 6.3,-1.06 9.05,0.53 l 64.62,37.31 c 2.75,1.58 3.15,3.92 0.9,5.22 l -57,32.91 c -2.25,1.3 -6.3,1.07 -9.05,-0.52 l -64.63,-37.31 c -2.75,-1.59 -3.15,-3.93 -0.89,-5.22 l 57,-32.92 m 188.91,109.08 c 2.25,-1.31 6.3,-1.08 9.05,0.51 l 64.63,37.31 c 2.74,1.59 3.15,3.93 0.89,5.23 l -57,32.91 c -2.25,1.29 -6.3,1.07 -9.05,-0.52 l -64.62,-37.31 c -2.75,-1.58 -3.15,-3.92 -0.91,-5.23 l 57.01,-32.9 m -513.38,-296.4 c 2.25,-1.3 6.3,-1.08 9.04,0.51 l 64.63,37.31 c 2.75,1.59 3.16,3.93 0.91,5.23 l -57.02,32.91 c -2.24,1.3 -6.29,1.07 -9.04,-0.52 l -64.63,-37.31 c -2.74,-1.59 -3.14,-3.92 -0.9,-5.22 l 57.01,-32.91 m 418.93,241.86 c 2.25,-1.3 6.29,-1.07 9.04,0.51 l 64.63,37.32 c 2.75,1.59 3.15,3.93 0.89,5.22 l -57,32.91 c -2.25,1.31 -6.3,1.07 -9.04,-0.51 l -64.63,-37.31 c -2.75,-1.59 -3.15,-3.92 -0.91,-5.23 l 57.02,-32.91 m 188.91,109.07 c 2.24,-1.3 6.3,-1.07 9.04,0.51 l 64.63,37.32 c 2.74,1.58 3.15,3.92 0.9,5.22 l -57,32.91 c -2.26,1.3 -6.31,1.07 -9.06,-0.52 l -64.62,-37.31 c -2.75,-1.59 -3.15,-3.92 -0.9,-5.22 l 57.01,-32.91 m -395.46,-653.03 -57.02,32.91 c -2.24,1.3 -6.29,1.07 -9.03,-0.52 l -79.55,-45.92 c -2.75,-1.59 -3.15,-3.93 -0.9,-5.22 l 57.01,-32.92 c 2.25,-1.3 6.3,-1.06 9.04,0.52 l 79.55,45.93 c 2.74,1.58 3.14,3.92 0.9,5.22 m -44.92,77.59 -57,32.92 c -2.25,1.29 -6.3,1.06 -9.05,-0.53 l -124.29,-71.75 c -2.74,-1.59 -3.15,-3.92 -0.89,-5.22 l 57,-32.92 c 2.25,-1.29 6.3,-1.06 9.05,0.52 l 124.28,71.75 c 2.75,1.6 3.15,3.93 0.9,5.23 m -261.91,169.97 c 2.24,-1.3 6.3,-1.06 9.04,0.52 l 64.63,37.32 c 2.74,1.58 3.15,3.91 0.9,5.21 l -57.01,32.92 c -2.25,1.3 -6.3,1.06 -9.05,-0.52 l -64.62,-37.32 c -2.75,-1.58 -3.15,-3.92 -0.9,-5.22 l 57.01,-32.91 m -60.98,-35.2 -57.01,32.9 c -2.25,1.3 -6.3,1.08 -9.04,-0.51 l -79.55,-45.93 c -2.74,-1.58 -3.15,-3.93 -0.89,-5.22 l 57,-32.92 c 2.25,-1.29 6.3,-1.05 9.04,0.53 l 79.55,45.92 c 2.75,1.58 3.15,3.93 0.9,5.23 m 208.38,-97.35 -57.01,32.91 c -2.25,1.29 -6.3,1.07 -9.05,-0.53 l -99.42,-57.4 c -2.75,-1.58 -3.15,-3.92 -0.9,-5.22 l 57.01,-32.91 c 2.25,-1.3 6.29,-1.07 9.04,0.52 l 99.43,57.4 c 2.75,1.59 3.15,3.93 0.9,5.23 m -124.45,31.67 -57.02,32.91 c -2.25,1.3 -6.29,1.06 -9.04,-0.52 L 1125.07,1198 c -2.74,-1.58 -3.14,-3.91 -0.9,-5.21 l 57.01,-32.92 c 2.25,-1.3 6.3,-1.06 9.05,0.52 l 64.62,37.31 c 2.75,1.59 3.15,3.93 0.91,5.23 m 501.72,-25.61 64.62,37.31 c 2.75,1.58 3.15,3.92 0.91,5.22 l -57.01,32.91 c -2.25,1.3 -6.3,1.07 -9.05,-0.52 l -64.63,-37.31 c -2.74,-1.58 -3.15,-3.92 -0.89,-5.22 l 57,-32.92 c 2.25,-1.29 6.3,-1.06 9.05,0.53 m 123.41,353.54 -64.63,-37.32 c -2.74,-1.59 -3.15,-3.92 -0.89,-5.22 l 57.01,-32.92 c 2.24,-1.29 6.3,-1.06 9.04,0.52 l 64.62,37.32 c 2.75,1.58 3.16,3.92 0.91,5.22 l -57.01,32.91 c -2.25,1.3 -6.3,1.06 -9.05,-0.51 m -94.44,-54.54 -64.63,-37.32 c -2.75,-1.58 -3.16,-3.92 -0.91,-5.21 l 57.01,-32.91 c 2.25,-1.3 6.3,-1.08 9.05,0.51 l 64.62,37.31 c 2.75,1.59 3.15,3.93 0.9,5.23 l -57.01,32.91 c -2.25,1.29 -6.3,1.07 -9.03,-0.52 m 377.81,218.14 -64.62,-37.32 c -2.75,-1.58 -3.15,-3.92 -0.9,-5.21 l 57,-32.92 c 2.25,-1.3 6.3,-1.07 9.05,0.52 l 64.63,37.31 c 2.75,1.59 3.14,3.92 0.89,5.22 l -57.01,32.92 c -2.24,1.3 -6.29,1.06 -9.04,-0.52 m -188.91,-109.07 -64.63,-37.32 c -2.74,-1.58 -3.15,-3.92 -0.9,-5.22 l 57.01,-32.91 c 2.25,-1.3 6.3,-1.06 9.04,0.52 l 64.63,37.31 c 2.75,1.59 3.16,3.93 0.91,5.23 l -57.02,32.91 c -2.24,1.3 -6.29,1.06 -9.04,-0.52 m 94.46,54.53 -64.63,-37.31 c -2.75,-1.59 -3.15,-3.92 -0.9,-5.23 l 57.01,-32.91 c 2.25,-1.29 6.29,-1.06 9.04,0.53 l 64.63,37.31 c 2.74,1.58 3.15,3.92 0.9,5.22 l -57.01,32.91 c -2.25,1.3 -6.29,1.07 -9.04,-0.52 m -377.82,-218.13 -64.63,-37.32 c -2.75,-1.58 -3.16,-3.92 -0.9,-5.22 l 57.01,-32.92 c 2.25,-1.29 6.3,-1.06 9.04,0.53 l 64.63,37.31 c 2.74,1.58 3.14,3.92 0.89,5.22 l -57,32.92 c -2.25,1.29 -6.3,1.06 -9.04,-0.52 m -94.47,-54.54 -64.62,-37.31 c -2.74,-1.58 -3.14,-3.92 -0.9,-5.23 l 57.01,-32.91 c 2.25,-1.29 6.3,-1.07 9.04,0.53 l 64.63,37.3 c 2.75,1.59 3.15,3.93 0.9,5.23 l -57.01,32.91 c -2.25,1.29 -6.3,1.06 -9.05,-0.52 m 303.95,-3.27 64.63,37.31 c 2.75,1.59 3.15,3.92 0.91,5.23 l -57.02,32.91 c -2.24,1.29 -6.29,1.07 -9.04,-0.53 l -64.62,-37.31 c -2.75,-1.58 -3.15,-3.92 -0.9,-5.22 l 57,-32.91 c 2.25,-1.3 6.3,-1.07 9.04,0.52 m -94.45,-54.54 64.63,37.31 c 2.74,1.59 3.15,3.93 0.9,5.22 l -57.01,32.92 c -2.24,1.3 -6.3,1.07 -9.05,-0.52 l -64.62,-37.31 c -2.75,-1.58 -3.15,-3.92 -0.9,-5.22 l 57.01,-32.91 c 2.24,-1.31 6.3,-1.07 9.04,0.51 m -94.46,-54.53 64.63,37.31 c 2.75,1.59 3.15,3.92 0.91,5.23 l -57.02,32.9 c -2.25,1.3 -6.3,1.08 -9.04,-0.51 l -64.63,-37.31 c -2.74,-1.59 -3.15,-3.93 -0.9,-5.22 l 57.01,-32.91 c 2.25,-1.3 6.3,-1.08 9.04,0.51 m -209.49,57.81 -64.63,-37.32 c -2.74,-1.58 -3.15,-3.92 -0.9,-5.22 l 57.01,-32.91 c 2.25,-1.3 6.3,-1.07 9.04,0.52 l 64.63,37.31 c 2.75,1.59 3.15,3.92 0.9,5.22 l -57.01,32.92 c -2.24,1.3 -6.29,1.06 -9.04,-0.52 m 105.99,-112.86 c 2.25,-1.3 6.31,-1.06 9.05,0.52 l 64.63,37.31 c 2.74,1.58 3.14,3.92 0.89,5.22 l -57,32.91 c -2.25,1.3 -6.3,1.07 -9.04,-0.51 l -64.63,-37.32 c -2.75,-1.58 -3.15,-3.92 -0.9,-5.21 l 57,-32.92 m 744.12,603.67 -64.63,-37.32 c -2.75,-1.58 -3.14,-3.92 -0.89,-5.22 l 57,-32.91 c 2.25,-1.3 6.3,-1.07 9.04,0.52 l 64.63,37.31 c 2.75,1.59 3.15,3.93 0.89,5.22 l -57,32.91 c -2.25,1.3 -6.3,1.07 -9.04,-0.51 m 792.05,283.23 c 2.24,-1.3 6.29,-1.07 9.04,0.52 l 64.63,37.31 c 2.74,1.59 3.15,3.92 0.9,5.22 l -57.01,32.92 c -2.25,1.29 -6.3,1.06 -9.05,-0.52 l -64.62,-37.32 c -2.75,-1.58 -3.16,-3.92 -0.9,-5.22 l 57.01,-32.91 m -886.5,-337.76 -64.64,-37.32 c -2.74,-1.59 -3.14,-3.92 -0.89,-5.22 l 57,-32.91 c 2.25,-1.3 6.3,-1.07 9.04,0.51 l 64.64,37.31 c 2.74,1.6 3.14,3.93 0.89,5.23 l -57.01,32.91 c -2.24,1.3 -6.29,1.07 -9.03,-0.51 m 710.9,410.43 -64.63,-37.31 c -2.74,-1.58 -3.15,-3.93 -0.9,-5.22 l 57.02,-32.91 c 2.24,-1.3 6.29,-1.07 9.04,0.52 l 64.62,37.31 c 2.74,1.59 3.15,3.92 0.9,5.22 l -57,32.92 c -2.25,1.29 -6.3,1.06 -9.05,-0.53 m 217.85,121.07 146.66,-84.68 c 2.24,-1.29 6.29,-1.06 9.04,0.52 l 64.63,37.31 c 2.74,1.59 3.14,3.93 0.9,5.23 l -146.66,84.68 c -2.26,1.3 -6.3,1.06 -9.06,-0.53 l -64.62,-37.31 c -2.74,-1.58 -3.15,-3.92 -0.89,-5.22 m -19.9,-11.48 c -2.24,1.3 -6.3,1.07 -9.04,-0.52 l -64.63,-37.31 c -2.73,-1.58 -3.14,-3.92 -0.9,-5.22 l 57.01,-32.91 c 2.25,-1.3 6.3,-1.07 9.04,0.51 l 64.64,37.32 c 2.74,1.58 3.15,3.92 0.89,5.21 l -57.01,32.92 m -102.97,-129.99 64.63,37.32 c 2.75,1.59 3.15,3.92 0.89,5.22 l -57,32.91 c -2.25,1.31 -6.3,1.07 -9.04,-0.51 l -64.63,-37.31 c -2.75,-1.59 -3.16,-3.93 -0.9,-5.23 l 57.01,-32.91 c 2.24,-1.3 6.3,-1.06 9.04,0.51 m 184.11,2.78 64.62,37.31 c 2.76,1.59 3.16,3.93 0.91,5.23 l -57.01,32.91 c -2.26,1.3 -6.3,1.07 -9.04,-0.52 l -64.63,-37.31 c -2.75,-1.59 -3.15,-3.93 -0.9,-5.22 l 57,-32.92 c 2.26,-1.29 6.3,-1.06 9.05,0.52 m -1158.33,-668.76 64.63,37.31 c 2.74,1.59 3.14,3.92 0.89,5.22 l -57,32.92 c -2.25,1.3 -6.3,1.06 -9.04,-0.52 l -64.64,-37.32 c -2.74,-1.58 -3.14,-3.92 -0.89,-5.21 l 57.01,-32.92 c 2.24,-1.3 6.3,-1.07 9.04,0.52 m 987.53,847.73 c -2.24,1.3 -6.29,1.07 -9.04,-0.51 l -64.62,-37.31 c -2.74,-1.6 -3.15,-3.93 -0.9,-5.23 l 57.01,-32.91 c 2.24,-1.3 6.29,-1.07 9.04,0.51 l 64.63,37.32 c 2.74,1.58 3.15,3.92 0.9,5.22 l -57.02,32.91 m -629.76,-537.65 64.63,37.31 c 2.74,1.59 3.14,3.93 0.9,5.23 l -57.01,32.91 c -2.25,1.3 -6.3,1.07 -9.04,-0.52 l -64.63,-37.31 c -2.75,-1.59 -3.15,-3.93 -0.91,-5.23 l 57.02,-32.91 c 2.24,-1.3 6.3,-1.06 9.04,0.52 m 526.27,482.6 -64.63,-37.31 c -2.74,-1.58 -3.15,-3.92 -0.9,-5.23 l 57.01,-32.91 c 2.25,-1.29 6.3,-1.06 9.05,0.52 l 64.62,37.31 c 2.75,1.59 3.15,3.93 0.9,5.23 l -57,32.91 c -2.25,1.3 -6.3,1.07 -9.05,-0.52 m -208.8,-120.55 -64.63,-37.31 c -2.74,-1.58 -3.14,-3.92 -0.9,-5.22 l 57.01,-32.92 c 2.25,-1.3 6.3,-1.06 9.04,0.52 l 64.64,37.31 c 2.74,1.59 3.14,3.93 0.89,5.23 l -57.01,32.92 c -2.24,1.29 -6.3,1.05 -9.04,-0.53 m 114.34,66.02 -64.62,-37.32 c -2.75,-1.58 -3.15,-3.92 -0.91,-5.22 l 57.02,-32.91 c 2.24,-1.3 6.3,-1.07 9.04,0.52 l 64.63,37.31 c 2.74,1.59 3.15,3.92 0.9,5.22 l -57.01,32.92 c -2.25,1.3 -6.3,1.06 -9.05,-0.52 m -884.04,-792.69 64.63,37.32 c 2.75,1.58 3.15,3.92 0.9,5.22 l -57.01,32.91 c -2.25,1.3 -6.3,1.07 -9.04,-0.52 l -64.63,-37.31 c -2.75,-1.59 -3.14,-3.92 -0.9,-5.23 l 57.01,-32.91 c 2.25,-1.3 6.3,-1.07 9.04,0.52 m -428.4,34.95 -64.63,-37.32 c -2.74,-1.58 -3.15,-3.92 -0.9,-5.22 l 57.01,-32.92 c 2.25,-1.29 6.3,-1.06 9.04,0.53 l 64.63,37.31 c 2.75,1.58 3.15,3.93 0.9,5.23 l -57.01,32.91 c -2.25,1.3 -6.29,1.06 -9.04,-0.52 m 94.46,54.53 -64.63,-37.31 c -2.75,-1.59 -3.15,-3.93 -0.9,-5.22 l 57.01,-32.92 c 2.24,-1.3 6.3,-1.06 9.04,0.52 l 64.63,37.31 c 2.74,1.59 3.15,3.93 0.9,5.23 l -57.01,32.91 c -2.25,1.3 -6.3,1.06 -9.04,-0.52 m 94.45,54.54 -64.62,-37.32 c -2.75,-1.58 -3.16,-3.92 -0.91,-5.22 l 57.01,-32.91 c 2.25,-1.3 6.3,-1.07 9.05,0.52 l 64.62,37.31 c 2.75,1.58 3.16,3.92 0.9,5.22 l -57.01,32.91 c -2.24,1.3 -6.3,1.07 -9.04,-0.51 m 188.91,109.07 -64.63,-37.32 c -2.74,-1.58 -3.14,-3.92 -0.89,-5.22 l 57.01,-32.92 c 2.24,-1.29 6.28,-1.07 9.04,0.53 l 64.62,37.31 c 2.75,1.58 3.15,3.92 0.91,5.22 l -57.01,32.92 c -2.25,1.29 -6.31,1.06 -9.05,-0.52 m -472.28,-272.68 -64.63,-37.31 c -2.74,-1.58 -3.14,-3.93 -0.89,-5.22 l 57.01,-32.92 c 2.24,-1.3 6.29,-1.07 9.04,0.53 l 64.62,37.31 c 2.75,1.58 3.15,3.92 0.9,5.21 l -57,32.92 c -2.25,1.3 -6.3,1.07 -9.05,-0.52 m 377.83,218.14 -64.63,-37.31 c -2.75,-1.59 -3.15,-3.92 -0.9,-5.22 l 57,-32.92 c 2.26,-1.3 6.3,-1.07 9.05,0.52 l 64.63,37.32 c 2.74,1.58 3.14,3.92 0.9,5.21 l -57.01,32.92 c -2.25,1.3 -6.3,1.06 -9.04,-0.52 m -472.29,-272.67 -64.62,-37.31 c -2.75,-1.59 -3.15,-3.93 -0.9,-5.23 l 57.01,-32.91 c 2.25,-1.3 6.29,-1.07 9.04,0.52 l 64.63,37.31 c 2.74,1.59 3.15,3.92 0.9,5.22 l -57.01,32.91 c -2.25,1.31 -6.3,1.07 -9.05,-0.51 m 180.92,-276.66 c 2.24,-1.3 6.29,-1.07 9.03,0.51 l 64.63,37.32 c 2.75,1.58 3.15,3.92 0.9,5.22 l -57.01,32.91 c -2.25,1.3 -6.29,1.07 -9.04,-0.51 l -64.63,-37.32 c -2.74,-1.59 -3.15,-3.92 -0.9,-5.22 l 57.02,-32.91 m 103.49,55.05 64.63,37.31 c 2.74,1.59 3.15,3.92 0.9,5.22 l -57.01,32.92 c -2.25,1.3 -6.3,1.06 -9.05,-0.52 l -64.62,-37.31 c -2.74,-1.58 -3.15,-3.93 -0.9,-5.23 l 57.01,-32.91 c 2.24,-1.3 6.3,-1.07 9.04,0.52 m -262.93,59.95 c 2.25,-1.3 6.3,-1.06 9.05,0.52 l 64.63,37.32 c 2.74,1.58 3.14,3.92 0.89,5.21 l -57,32.92 c -2.26,1.3 -6.3,1.06 -9.05,-0.52 l -64.63,-37.31 c -2.74,-1.59 -3.15,-3.92 -0.89,-5.22 l 57,-32.92 m -115.93,107.12 -64.63,-37.31 c -2.74,-1.58 -3.15,-3.93 -0.9,-5.22 l 57.01,-32.91 c 2.25,-1.3 6.3,-1.07 9.04,0.52 l 64.63,37.31 c 2.75,1.58 3.15,3.92 0.9,5.22 l -57.01,32.91 c -2.25,1.3 -6.29,1.07 -9.04,-0.52 m 230.45,-144.53 c 2.25,-1.3 6.3,-1.07 9.04,0.52 l 64.63,37.32 c 2.74,1.58 3.15,3.92 0.9,5.22 l -57.01,32.91 c -2.25,1.29 -6.3,1.06 -9.05,-0.52 l -64.62,-37.31 c -2.75,-1.59 -3.14,-3.92 -0.9,-5.23 l 57.01,-32.91 m 525.2,580.81 -64.63,-37.31 c -2.75,-1.59 -3.15,-3.93 -0.9,-5.23 l 57.01,-32.91 c 2.25,-1.3 6.3,-1.06 9.04,0.52 l 64.63,37.31 c 2.75,1.58 3.15,3.93 0.9,5.22 l -57.01,32.92 c -2.24,1.3 -6.3,1.06 -9.04,-0.52 m 94.46,54.54 -64.63,-37.32 c -2.75,-1.59 -3.15,-3.92 -0.9,-5.22 l 57.01,-32.92 c 2.25,-1.29 6.3,-1.06 9.04,0.52 l 64.63,37.31 c 2.74,1.59 3.15,3.93 0.9,5.23 l -57.01,32.91 c -2.25,1.3 -6.29,1.07 -9.04,-0.51 m 428.4,-34.95 144.17,83.24 c 2.74,1.59 3.14,3.92 0.9,5.22 l -146.66,84.67 c -2.26,1.3 -6.3,1.07 -9.04,-0.51 l -74.57,-43.06 c -2.75,-1.59 -3.15,-3.92 -0.91,-5.22 l 81.52,-47.06 c 2.25,-1.3 1.84,-3.64 -0.91,-5.22 l -59.65,-34.45 c -2.75,-1.58 -3.15,-3.92 -0.89,-5.21 l 57,-32.92 c 2.24,-1.3 6.3,-1.06 9.04,0.52 m 104.24,163.7 64.62,37.32 c 2.74,1.58 3.14,3.92 0.9,5.21 l -57.02,32.92 c -2.24,1.3 -6.29,1.06 -9.03,-0.52 l -64.63,-37.31 c -2.74,-1.59 -3.15,-3.93 -0.91,-5.22 l 57.02,-32.92 c 2.24,-1.3 6.29,-1.06 9.05,0.52 m -482.06,-381.84 64.63,37.31 c 2.74,1.59 3.14,3.93 0.89,5.23 l -57.01,32.91 c -2.25,1.29 -6.29,1.07 -9.04,-0.52 l -64.62,-37.31 c -2.75,-1.59 -3.16,-3.92 -0.91,-5.22 l 57.02,-32.91 c 2.24,-1.3 6.29,-1.08 9.04,0.51 m 94.45,54.53 64.63,37.32 c 2.75,1.58 3.15,3.92 0.9,5.22 l -57.01,32.92 c -2.25,1.29 -6.3,1.06 -9.04,-0.52 l -64.63,-37.32 c -2.75,-1.58 -3.14,-3.92 -0.9,-5.22 l 57.01,-32.91 c 2.25,-1.3 6.3,-1.07 9.04,0.51 m 94.46,54.54 64.63,37.31 c 2.75,1.59 3.15,3.92 0.89,5.23 l -57,32.91 c -2.25,1.29 -6.3,1.07 -9.04,-0.52 l -64.63,-37.31 c -2.75,-1.59 -3.15,-3.93 -0.9,-5.22 l 57.01,-32.91 c 2.25,-1.3 6.3,-1.08 9.04,0.51 m 94.46,54.53 64.63,37.32 c 2.73,1.58 3.14,3.92 0.89,5.22 l -57.01,32.91 c -2.24,1.3 -6.3,1.07 -9.04,-0.52 l -64.63,-37.3 c -2.74,-1.6 -3.14,-3.93 -0.9,-5.23 l 57.01,-32.91 c 2.25,-1.31 6.3,-1.07 9.05,0.51 m -239.49,144.02 -64.63,-37.31 c -2.75,-1.59 -3.15,-3.93 -0.91,-5.23 l 57.02,-32.91 c 2.25,-1.3 6.29,-1.07 9.04,0.52 l 64.63,37.31 c 2.75,1.59 3.15,3.93 0.89,5.22 l -57,32.91 c -2.25,1.3 -6.3,1.08 -9.04,-0.51 m 94.45,54.53 -64.63,-37.31 c -2.74,-1.59 -3.15,-3.92 -0.9,-5.22 l 57.01,-32.92 c 2.25,-1.3 6.3,-1.06 9.05,0.52 l 64.62,37.32 c 2.75,1.58 3.15,3.92 0.89,5.22 l -56.99,32.91 c -2.25,1.3 -6.31,1.06 -9.05,-0.52 m 253.54,146.38 -64.63,-37.31 c -2.74,-1.58 -3.15,-3.93 -0.89,-5.22 l 57.01,-32.91 c 2.23,-1.3 6.29,-1.07 9.03,0.51 l 64.63,37.32 c 2.74,1.58 3.15,3.92 0.9,5.22 l -57.01,32.91 c -2.24,1.3 -6.3,1.07 -9.04,-0.52 m -114.34,-66.02 -109.37,-63.14 c -2.75,-1.58 -3.15,-3.93 -0.91,-5.22 l 57.02,-32.91 c 2.25,-1.3 6.29,-1.06 9.04,0.52 l 109.37,63.14 c 2.75,1.58 3.15,3.93 0.9,5.22 l -57.01,32.92 c -2.25,1.3 -6.3,1.06 -9.04,-0.53 m 208.8,120.56 -64.63,-37.31 c -2.75,-1.59 -3.15,-3.93 -0.9,-5.23 l 57.01,-32.91 c 2.25,-1.3 6.3,-1.07 9.03,0.51 l 64.63,37.32 c 2.76,1.59 3.16,3.93 0.91,5.22 l -57.01,32.92 c -2.25,1.3 -6.3,1.06 -9.04,-0.52 m 90.17,-126.69 64.63,37.31 c 2.75,1.58 3.15,3.92 0.91,5.22 l -57.01,32.92 c -2.26,1.29 -6.3,1.05 -9.05,-0.53 l -64.63,-37.31 c -2.75,-1.58 -3.15,-3.92 -0.89,-5.22 l 57,-32.92 c 2.26,-1.29 6.3,-1.06 9.04,0.53"
         style="fill:#33535f;fill-opacity:1;fill-rule:nonzero;stroke:none"
         id="path68" /><path
         d="m 2359.85,1299.76 13.26,-7.64 351.96,-203.17 625.94,361.39 13.03,7.43 -365.22,210.81 -638.97,-368.82"
         style="fill:#17282f;fill-opacity:1;fill-rule:nonzero;stroke:none"
         id="path70" /><path
         d="m 3345.17,1446.97 -346.35,199.82 -619.88,-358.03 346.13,-199.81 620.1,358.02"
         style="fill:#273e47;fill-opacity:1;fill-rule:nonzero;stroke:none"
         id="path72" /><path
         d="m 3740.58,4230.11 c 0,26.35 -9.2,44.92 -24.08,53.67 -15.07,8.86 -102.3,59.18 -117.46,67.81 -15.03,8.55 -35.73,7.25 -58.58,-5.95 l -1632.56,-942.55 0.01,-540.31 116.98,-67.52 1632.55,942.55 c 45.92,26.51 83.14,90.97 83.14,143.99 v 348.31"
         style="fill:#26b6a6;fill-opacity:1;fill-rule:nonzero;stroke:none"
         id="path74" /><path
         d="m 2024.89,2795.26 -116.98,67.52 -0.01,540.31 1632.56,942.55 c 13.35,7.71 25.96,11.36 37.13,11.36 7.96,0 15.2,-1.85 21.45,-5.41 15.16,-8.63 102.39,-58.95 117.46,-67.81 14.88,-8.75 24.08,-27.32 24.08,-53.67 V 3881.8 c 0,-53.02 -37.22,-117.48 -83.14,-143.99 L 2024.89,2795.26"
         style="fill:#19b19d;fill-opacity:1;fill-rule:nonzero;stroke:none"
         id="path76" /><path
         d="m 3657.45,4278.11 c 45.9,26.51 83.13,5.02 83.13,-48 V 3881.8 c 0,-53.02 -37.22,-117.48 -83.13,-143.99 L 2024.89,2795.26 v 540.3 l 1632.56,942.55"
         style="fill:#26b6a6;fill-opacity:1;fill-rule:nonzero;stroke:none"
         id="path78" /><path
         d="m 3640.69,3782.3 c 30.82,17.8 56.03,61.48 56.03,97.07 v 321.77 c 0,25.36 -17.97,35.74 -39.93,23.06 L 2057.76,3300.33 v -432.6 l 1582.93,914.57"
         style="fill:#fafaf9;fill-opacity:1;fill-rule:nonzero;stroke:none"
         id="path80" /><path
         d="m 2336.45,3134.59 c 0,-2.48 -0.59,-4.95 -1.76,-7.41 -1.17,-2.49 -2.56,-4.19 -4.17,-5.12 l -27.62,-15.95 c -1.61,-0.92 -2.99,-0.83 -4.16,0.31 -1.17,1.11 -1.75,2.9 -1.75,5.39 v 85.4 c 0,9.67 -1.54,16.55 -4.6,20.63 -3.08,4.07 -7.89,4.22 -14.48,0.41 -6.58,-3.79 -11.36,-9.49 -14.36,-17.05 -2.99,-7.6 -4.49,-16.22 -4.49,-25.89 v -85.4 c 0,-2.48 -0.59,-4.95 -1.76,-7.42 -1.16,-2.48 -2.55,-4.18 -4.16,-5.11 l -27.63,-15.94 c -1.61,-0.94 -3,-0.84 -4.16,0.29 -1.18,1.12 -1.76,2.91 -1.76,5.39 v 221.43 c 0,2.48 0.58,4.95 1.76,7.42 1.16,2.48 2.55,4.18 4.16,5.12 l 27.63,15.94 c 1.61,0.93 3,0.82 4.16,-0.3 1.17,-1.12 1.76,-2.92 1.76,-5.39 v -71.9 c 2.48,6.16 6.35,12.95 11.62,20.38 5.26,7.43 11.32,13.11 18.19,17.09 7.01,4.04 13.45,6.25 19.3,6.58 5.84,0.33 10.85,-1.45 15.02,-5.34 4.16,-3.9 7.41,-10.01 9.74,-18.33 2.35,-8.32 3.52,-19.14 3.52,-32.41 v -92.82"
         style="fill:#33535f;fill-opacity:1;fill-rule:nonzero;stroke:none"
         id="path82" /><path
         d="m 2412.3,3237.78 c 0,-5.17 0.73,-8.75 2.19,-10.71 1.46,-1.96 3.87,-1.98 7.24,-0.04 l 17.53,10.12 c 1.61,0.92 3,0.83 4.17,-0.28 1.16,-1.14 1.75,-2.93 1.75,-5.41 v -34.09 c 0,-2.48 -0.59,-4.95 -1.75,-7.42 -1.17,-2.48 -2.56,-4.18 -4.17,-5.11 l -20.82,-12.02 c -6.87,-3.97 -13.12,-6.05 -18.75,-6.27 -5.62,-0.21 -10.41,1.41 -14.36,4.88 -3.94,3.45 -7.01,8.66 -9.2,15.6 -2.19,6.95 -3.29,15.6 -3.29,25.95 v 56.72 l -16.22,-9.38 c -1.62,-0.92 -3,-0.84 -4.17,0.3 -1.17,1.12 -1.75,2.93 -1.75,5.41 v 34.08 c 0,2.48 0.58,4.95 1.75,7.42 1.17,2.47 2.55,4.18 4.17,5.12 l 16.22,9.35 v 55.02 c 0,2.48 0.58,4.95 1.74,7.42 1.18,2.48 2.56,4.18 4.17,5.12 l 27.63,15.94 c 1.6,0.94 2.99,0.82 4.17,-0.29 1.16,-1.13 1.75,-2.93 1.75,-5.39 v -55.02 l 24.77,14.29 c 1.61,0.93 2.99,0.82 4.17,-0.29 1.17,-1.13 1.75,-2.93 1.75,-5.4 v -34.09 c 0,-2.49 -0.58,-4.96 -1.75,-7.42 -1.18,-2.49 -2.56,-4.18 -4.17,-5.11 l -24.77,-14.31 v -54.69"
         style="fill:#33535f;fill-opacity:1;fill-rule:nonzero;stroke:none"
         id="path84" /><path
         d="m 2516.22,3297.78 c 0,-5.17 0.72,-8.75 2.18,-10.72 1.47,-1.96 3.88,-1.97 7.25,-0.04 l 17.53,10.13 c 1.6,0.92 2.99,0.83 4.17,-0.28 1.16,-1.14 1.75,-2.94 1.75,-5.41 v -34.1 c 0,-2.48 -0.59,-4.95 -1.75,-7.41 -1.18,-2.49 -2.57,-4.19 -4.17,-5.11 l -20.82,-12.03 c -6.88,-3.97 -13.13,-6.05 -18.75,-6.26 -5.63,-0.21 -10.41,1.41 -14.37,4.87 -3.93,3.45 -7.01,8.66 -9.2,15.6 -2.18,6.96 -3.29,15.61 -3.29,25.96 v 56.71 l -16.22,-9.37 c -1.61,-0.93 -3,-0.84 -4.17,0.3 -1.16,1.11 -1.75,2.91 -1.75,5.4 v 34.09 c 0,2.47 0.59,4.94 1.75,7.42 1.17,2.46 2.56,4.18 4.17,5.11 l 16.22,9.36 v 55.02 c 0,2.47 0.59,4.94 1.75,7.42 1.17,2.47 2.56,4.18 4.17,5.11 l 27.63,15.95 c 1.6,0.93 2.99,0.82 4.17,-0.29 1.16,-1.14 1.75,-2.93 1.75,-5.4 v -55.03 l 24.77,14.31 c 1.6,0.92 2.99,0.82 4.17,-0.3 1.16,-1.12 1.75,-2.92 1.75,-5.4 v -34.08 c 0,-2.49 -0.59,-4.96 -1.75,-7.43 -1.18,-2.49 -2.57,-4.17 -4.17,-5.11 l -24.77,-14.3 v -54.69"
         style="fill:#33535f;fill-opacity:1;fill-rule:nonzero;stroke:none"
         id="path86" /><path
         d="m 2646.44,3382.76 c 0.43,6.55 0.43,12.86 0,18.9 -0.44,7.62 -2.12,13.51 -5.05,17.69 -2.92,4.15 -7.81,4.25 -14.68,0.29 -3.22,-1.87 -5.99,-4.26 -8.33,-7.18 -2.34,-2.92 -4.28,-6.13 -5.81,-9.6 -1.54,-3.47 -2.74,-7.03 -3.62,-10.71 -0.88,-3.64 -1.46,-7.24 -1.75,-10.79 -0.3,-3.54 -0.44,-7.56 -0.44,-12.06 0,-4.5 0.14,-8.35 0.44,-11.55 0.29,-3.22 0.87,-6.14 1.75,-8.79 0.88,-2.64 2.08,-4.81 3.62,-6.51 1.53,-1.71 3.47,-2.67 5.81,-2.89 2.34,-0.24 5.11,0.59 8.33,2.44 6.87,3.97 11.76,9.72 14.68,17.25 2.93,7.54 4.61,15.38 5.05,23.51 z m -9.87,-87.38 c -4.23,-2.45 -7.96,-3.92 -11.17,-4.43 -3.23,-0.51 -6,-0.42 -8.33,0.25 -2.35,0.69 -4.32,1.73 -5.93,3.17 -1.6,1.43 -2.92,2.87 -3.94,4.3 v -71.89 c 0,-2.47 -0.59,-4.96 -1.76,-7.42 -1.17,-2.48 -2.55,-4.18 -4.16,-5.11 l -27.63,-15.96 c -1.6,-0.92 -2.99,-0.82 -4.16,0.31 -1.17,1.12 -1.76,2.91 -1.76,5.4 v 221.42 c 0,2.46 0.59,4.94 1.76,7.42 1.17,2.46 2.56,4.18 4.16,5.1 l 26.53,15.32 c 1.6,0.93 3,0.82 4.17,-0.3 1.16,-1.11 1.75,-2.92 1.75,-5.39 v -7.76 c 1.31,2.99 2.74,6.19 4.28,9.54 1.53,3.38 3.42,6.66 5.69,9.88 2.26,3.22 5.05,6.4 8.33,9.53 3.29,3.15 7.35,6.09 12.17,8.89 6.58,3.79 12.79,5.86 18.64,6.21 5.85,0.33 10.97,-1.45 15.34,-5.33 4.4,-3.88 7.93,-9.89 10.64,-17.99 2.7,-8.12 4.2,-18.73 4.49,-31.83 0.14,-3.29 0.22,-7.81 0.22,-13.54 0,-5.74 -0.08,-10.33 -0.22,-13.81 -0.29,-13.44 -1.79,-25.79 -4.49,-37.02 -2.71,-11.24 -6.24,-21.32 -10.64,-30.27 -4.37,-8.94 -9.49,-16.68 -15.34,-23.2 -5.85,-6.52 -12.06,-11.7 -18.64,-15.49"
         style="fill:#33535f;fill-opacity:1;fill-rule:nonzero;stroke:none"
         id="path88" /><path
         d="m 2746.62,3371.4 c 0,-2.48 -0.59,-4.94 -1.75,-7.41 -1.17,-2.49 -2.56,-4.19 -4.17,-5.11 l -28.71,-16.58 c -1.62,-0.94 -3.01,-0.84 -4.17,0.29 -1.17,1.13 -1.75,2.92 -1.75,5.4 v 44.22 c 0,2.47 0.58,4.94 1.75,7.43 1.16,2.46 2.55,4.16 4.17,5.1 l 28.71,16.58 c 1.61,0.92 3,0.82 4.17,-0.29 1.16,-1.14 1.75,-2.93 1.75,-5.41 z m 0,118.14 c 0,-2.48 -0.59,-4.95 -1.75,-7.42 -1.17,-2.48 -2.56,-4.18 -4.17,-5.12 l -28.71,-16.57 c -1.62,-0.93 -3.01,-0.83 -4.17,0.3 -1.17,1.12 -1.75,2.91 -1.75,5.39 v 44.22 c 0,2.47 0.58,4.94 1.75,7.42 1.16,2.49 2.55,4.18 4.17,5.11 l 28.71,16.57 c 1.61,0.94 3,0.84 4.17,-0.28 1.16,-1.13 1.75,-2.94 1.75,-5.4 v -44.22"
         style="fill:#33535f;fill-opacity:1;fill-rule:nonzero;stroke:none"
         id="path90" /><path
         d="m 2837.83,3670.13 c 0.72,2.89 1.82,5.82 3.28,8.81 1.45,2.98 3.58,5.27 6.37,6.88 l 27.17,15.69 c 1.31,0.77 2.44,0.69 3.4,-0.23 0.95,-0.92 1.43,-2.38 1.43,-4.41 0,-0.9 -0.15,-2 -0.44,-3.3 l -73.88,-315.71 c -0.59,-2.58 -1.62,-5.43 -3.07,-8.52 -1.46,-3.1 -3.66,-5.48 -6.58,-7.17 l -26.75,-15.44 c -1.31,-0.76 -2.45,-0.68 -3.39,0.22 -0.96,0.91 -1.43,2.4 -1.43,4.41 0,0.9 0.15,2 0.44,3.29 l 73.45,315.48"
         style="fill:#33535f;fill-opacity:1;fill-rule:nonzero;stroke:none"
         id="path92" /><path
         d="m 2913.02,3713.55 c 0.73,2.89 1.83,5.82 3.29,8.81 1.46,2.97 3.58,5.27 6.36,6.88 l 27.19,15.69 c 1.31,0.77 2.44,0.69 3.4,-0.23 0.94,-0.92 1.41,-2.38 1.41,-4.42 0,-0.89 -0.13,-1.99 -0.44,-3.29 l -73.86,-315.71 c -0.6,-2.58 -1.63,-5.43 -3.08,-8.52 -1.47,-3.11 -3.66,-5.48 -6.57,-7.17 l -26.76,-15.44 c -1.31,-0.76 -2.44,-0.69 -3.39,0.22 -0.96,0.91 -1.42,2.39 -1.42,4.41 0,0.9 0.13,2 0.43,3.29 l 73.44,315.48"
         style="fill:#33535f;fill-opacity:1;fill-rule:nonzero;stroke:none"
         id="path94" /><path
         d="m 3057.93,3717.55 c 2.19,1.26 3.87,1.31 5.04,0.2 1.17,-1.12 1.98,-2.47 2.42,-4.01 l 16.22,-67.25 16.23,85.98 c 0.43,2.05 1.23,4.32 2.41,6.8 1.16,2.47 2.84,4.36 5.04,5.61 l 27.18,15.69 c 1.46,0.85 2.7,0.78 3.73,-0.21 1.02,-0.98 1.53,-2.61 1.53,-4.85 0,-0.9 -0.07,-1.84 -0.22,-2.82 l -34.86,-176.41 c -0.44,-2.27 -1.2,-4.63 -2.29,-7.05 -1.11,-2.44 -2.75,-4.3 -4.95,-5.57 l -24.99,-14.42 c -2.18,-1.26 -3.79,-1.3 -4.82,-0.08 -1.02,1.2 -1.83,2.66 -2.41,4.35 l -15.57,61.88 -15.55,-79.86 c -0.59,-2.35 -1.4,-4.74 -2.42,-7.13 -1.02,-2.39 -2.63,-4.22 -4.83,-5.49 l -24.99,-14.42 c -2.19,-1.27 -3.83,-1.32 -4.93,-0.15 -1.1,1.16 -1.86,2.64 -2.3,4.41 l -34.86,136.15 -0.23,2.57 c 0,2.24 0.52,4.46 1.55,6.63 1.01,2.16 2.25,3.67 3.72,4.51 l 27.19,15.7 c 2.19,1.26 3.86,1.32 5.04,0.2 1.17,-1.12 1.97,-2.46 2.41,-4.01 l 16.22,-67.25 16.23,85.98 c 0.44,2.05 1.24,4.32 2.41,6.8 1.17,2.47 2.85,4.36 5.04,5.62 l 20.61,11.9"
         style="fill:#33535f;fill-opacity:1;fill-rule:nonzero;stroke:none"
         id="path96" /><path
         d="m 3247.79,3827.16 c 2.2,1.27 3.86,1.33 5.04,0.2 1.17,-1.12 1.97,-2.47 2.41,-4.01 l 16.22,-67.24 16.23,85.98 c 0.43,2.04 1.24,4.32 2.41,6.79 1.17,2.48 2.85,4.35 5.04,5.62 l 27.19,15.69 c 1.45,0.84 2.7,0.78 3.73,-0.21 1.01,-0.98 1.52,-2.6 1.52,-4.85 0,-0.9 -0.07,-1.84 -0.2,-2.83 l -34.87,-176.4 c -0.44,-2.28 -1.21,-4.64 -2.3,-7.06 -1.09,-2.44 -2.73,-4.29 -4.93,-5.56 l -25,-14.42 c -2.19,-1.27 -3.79,-1.3 -4.82,-0.08 -1.02,1.2 -1.82,2.66 -2.41,4.34 l -15.56,61.89 -15.57,-79.86 c -0.59,-2.37 -1.4,-4.75 -2.41,-7.13 -1.02,-2.4 -2.63,-4.22 -4.83,-5.49 l -24.99,-14.43 c -2.2,-1.28 -3.84,-1.31 -4.93,-0.14 -1.1,1.15 -1.86,2.64 -2.3,4.39 l -34.87,136.16 -0.21,2.58 c 0,2.24 0.52,4.45 1.54,6.62 1.01,2.17 2.26,3.67 3.72,4.51 l 27.19,15.7 c 2.19,1.27 3.87,1.33 5.04,0.21 1.17,-1.13 1.97,-2.47 2.41,-4.02 l 16.22,-67.24 16.23,85.98 c 0.44,2.05 1.23,4.32 2.41,6.79 1.17,2.48 2.85,4.36 5.04,5.63 l 20.61,11.89"
         style="fill:#33535f;fill-opacity:1;fill-rule:nonzero;stroke:none"
         id="path98" /><path
         d="m 3437.65,3936.77 c 2.19,1.27 3.87,1.33 5.04,0.21 1.16,-1.13 1.97,-2.47 2.41,-4.01 l 16.22,-67.26 16.23,86 c 0.43,2.04 1.23,4.32 2.42,6.79 1.16,2.47 2.84,4.34 5.03,5.61 l 27.18,15.69 c 1.47,0.86 2.71,0.77 3.73,-0.2 1.03,-0.99 1.54,-2.62 1.54,-4.86 0,-0.9 -0.07,-1.84 -0.22,-2.81 l -34.86,-176.41 c -0.44,-2.29 -1.2,-4.64 -2.3,-7.07 -1.1,-2.44 -2.74,-4.28 -4.94,-5.55 l -24.99,-14.43 c -2.19,-1.27 -3.8,-1.29 -4.82,-0.08 -1.02,1.21 -1.83,2.66 -2.42,4.34 l -15.56,61.89 -15.56,-79.86 c -0.58,-2.37 -1.39,-4.75 -2.41,-7.13 -1.03,-2.4 -2.64,-4.22 -4.83,-5.49 l -24.99,-14.43 c -2.19,-1.26 -3.83,-1.31 -4.94,-0.14 -1.09,1.16 -1.85,2.64 -2.29,4.4 l -34.86,136.16 -0.23,2.57 c 0,2.24 0.52,4.45 1.54,6.62 1.02,2.16 2.26,3.67 3.72,4.52 l 27.19,15.69 c 2.2,1.27 3.87,1.33 5.05,0.22 1.16,-1.14 1.96,-2.48 2.4,-4.02 l 16.22,-67.25 16.23,85.99 c 0.44,2.05 1.24,4.32 2.42,6.79 1.17,2.47 2.85,4.35 5.04,5.62 l 20.61,11.89"
         style="fill:#33535f;fill-opacity:1;fill-rule:nonzero;stroke:none"
         id="path100" /><path
         d="m 3565.9,3844.41 c 0,-2.48 -0.58,-4.95 -1.76,-7.42 -1.16,-2.48 -2.55,-4.18 -4.16,-5.1 l -28.72,-16.59 c -1.61,-0.92 -2.99,-0.83 -4.17,0.3 -1.17,1.13 -1.74,2.92 -1.74,5.4 v 44.21 c 0,2.48 0.57,4.96 1.74,7.44 1.18,2.46 2.56,4.17 4.17,5.1 l 28.72,16.57 c 1.61,0.93 3,0.84 4.16,-0.29 1.18,-1.13 1.76,-2.92 1.76,-5.4 v -44.22"
         style="fill:#33535f;fill-opacity:1;fill-rule:nonzero;stroke:none"
         id="path102" /><path
         d="m 1952.84,3492.82 0.02,0.04 -0.79,0.48 -0.08,0.05 -200.06,118.77 -0.18,0.11 -1.1,0.67 -0.02,-0.05 c -88.11,53.12 -205.69,44.75 -332.14,-37.82 -254.06,-165.88 -447.654,-568.23 -432.412,-898.66 7.602,-164.7 65.672,-280.42 153.452,-334.55 l -0.02,-0.04 0.78,-0.47 0.1,-0.06 200.09,-118.8 0.09,-0.05 0.92,-0.57 0.02,0.05 c 88.14,-53.28 205.81,-44.95 332.38,37.69 254.05,165.88 447.65,568.23 432.4,898.66 -7.6,164.7 -65.67,280.42 -153.45,334.55"
         style="fill:#273e47;fill-opacity:1;fill-rule:nonzero;stroke:none"
         id="path104" /><path
         d="m 1334.06,2226.57 -193.62,114.73 h -0.14 l -0.85,0.6 c -87.73,54.25 -145.774,169.97 -153.356,334.45 -6.809,147.36 28.016,308.94 91.016,457.39 l 1.27,3.26 198.86,-122.02 c -63.15,-148.45 -97.83,-310.03 -91.03,-457.4 7.44,-161.17 63.21,-275.39 147.85,-331.01"
         style="fill:#17282f;fill-opacity:1;fill-rule:nonzero;stroke:none"
         id="path106" /><path
         d="m 1673.89,2259.61 c 254.05,165.88 447.64,568.23 432.4,898.66 -15.25,330.44 -233.56,463.83 -487.62,297.94 -254.06,-165.88 -447.65,-568.23 -432.4,-898.66 15.25,-330.43 233.56,-463.83 487.62,-297.94"
         style="fill:#33535f;fill-opacity:1;fill-rule:nonzero;stroke:none"
         id="path108" /><path
         d="m 1796.45,3326.36 c -38.29,0 -80.25,-12.64 -123.32,-37.7 -179.22,-104.24 -325.01,-385.73 -325.01,-627.47 0,-123.93 38.91,-217.39 106.75,-256.41 54.42,-31.28 125.11,-24.88 199.02,18.14 179.21,104.26 325,385.74 325,627.47 0,123.93 -38.9,217.39 -106.75,256.42 -22.71,13.06 -48.26,19.55 -75.69,19.55 z M 1530.5,2346.87 c -33.98,0 -65.95,8.22 -94.7,24.75 -80.03,46.04 -125.94,151.57 -125.94,289.57 0,253.87 154.33,550.19 344.03,660.54 86.26,50.19 170.55,56.64 237.33,18.23 80.02,-46.02 125.93,-151.57 125.93,-289.57 0,-253.86 -154.33,-550.17 -344.02,-660.54 -49.13,-28.58 -97.64,-42.98 -142.63,-42.98"
         style="fill:#26b6a6;fill-opacity:1;fill-rule:nonzero;stroke:none"
         id="path110" /><path
         d="m 1530.45,2981.67 c -42.06,0 -80.78,13.1 -114.22,39.3 l 17.69,22.58 c 58.45,-45.8 137.43,-43.82 222.37,5.61 88.02,51.21 170.74,146.06 232.88,267.05 l 25.53,-13.1 c -64.64,-125.83 -151.28,-224.82 -243.97,-278.75 -48.91,-28.44 -96.41,-42.69 -140.28,-42.69"
         style="fill:#26b6a6;fill-opacity:1;fill-rule:nonzero;stroke:none"
         id="path112" /><path
         d="m 1437.85,2395.38 -25.53,13.11 c 64.62,125.81 151.27,224.8 243.97,278.74 95.81,55.72 186.18,56.91 254.5,3.4 l -17.7,-22.58 c -58.46,45.78 -137.43,43.77 -222.36,-5.63 -88.04,-51.2 -170.74,-146.04 -232.88,-267.04"
         style="fill:#26b6a6;fill-opacity:1;fill-rule:nonzero;stroke:none"
         id="path114" /><path
         d="m 1700.47,3301.81 c -9.55,0 -19.42,-3 -29.74,-9.02 -88.68,-51.58 -163.61,-297.18 -163.61,-536.31 0,-197.02 47.67,-312.62 94.91,-339.79 17.13,-9.87 34.9,-9.17 54.26,2.1 88.69,51.58 163.6,297.19 163.6,536.32 0,197.02 -47.67,312.63 -94.9,339.79 -8,4.6 -16.14,6.91 -24.52,6.91 z m -74,-920.72 c -13.29,0 -26.32,3.58 -38.74,10.73 -67.42,38.78 -109.3,178.5 -109.3,364.66 0,256.63 78.13,503.1 177.86,561.12 28.24,16.41 56.91,17.18 83,2.18 67.41,-38.78 109.29,-178.51 109.29,-364.67 0,-256.62 -78.13,-503.1 -177.85,-561.12 -14.78,-8.59 -29.67,-12.9 -44.26,-12.9"
         style="fill:#26b6a6;fill-opacity:1;fill-rule:nonzero;stroke:none"
         id="path116" /><path
         d="m 1677.86,2406.39 h -28.7 v 898.81 h 28.7 v -898.81"
         style="fill:#26b6a6;fill-opacity:1;fill-rule:nonzero;stroke:none"
         id="path118" /><path
         d="m 1336.21,2648.79 -14.44,24.8 669.04,389.2 14.43,-24.8 -669.03,-389.2"
         style="fill:#26b6a6;fill-opacity:1;fill-rule:nonzero;stroke:none"
         id="path120" /><path
         d="m 4004.31,3489.52 c -3.33,6.93 -7.46,11.3 -11.94,13.92 h 0.08 v 0.01 l -29.81,17.22 v -0.08 c -12.97,7.45 -28.82,0.08 -37.2,-5.07 l -18.6,10.74 c -22.58,13.62 -53.95,-14.89 -60.98,-21.73 l -8.03,4.64 v -0.02 c -10.62,6.4 -25.07,2.36 -37.88,-4.11 v 108.36 c 0,11.88 -4.08,20.28 -10.69,24.4 l 0.04,0.02 -0.31,0.18 -0.51,0.29 -29.25,16.91 -0.07,0.04 -0.2,0.12 -0.01,-0.02 c -6.91,3.85 -16.36,3.24 -26.8,-2.8 -21.13,-12.19 -38.26,-41.86 -38.26,-66.26 v -331.92 c -1.52,0.74 -3.04,1.45 -4.56,2.12 -26.15,18.42 -53.58,29.38 -77.82,25.06 -23.14,-4.11 -43.79,-23.8 -49.8,-34.38 -12.65,-22.31 8.23,-36.3 35.12,-67.06 26.65,-30.48 50.17,-67.19 74.45,-89.84 24.28,-22.65 41.88,-28.54 41.88,-28.54 v -43.42 l 29.54,-17.06 224.8,129.79 v 43.41 c 0,0 27.9,111.22 36.81,157.69 8.91,46.48 17.15,121.75 0,157.39"
         style="fill:#26b6a6;fill-opacity:1;fill-rule:nonzero;stroke:none"
         id="path122" /><path
         d="m 3742.7,3044.63 c -0.45,0.15 -16.09,5.56 -38.03,25.07 22.27,-19.77 38.03,-25.04 38.03,-25.04 v -0.03 m -47.37,33.93 c -16.99,17.32 -33.76,40.82 -51.63,63.49 17.88,-22.65 34.64,-46.16 51.63,-63.49 m -130.8,138.11 c -4.16,5.98 -6.59,11.6 -6.61,17.48 -0.01,4.13 1.17,8.39 3.79,13.01 6.01,10.58 26.66,30.27 49.8,34.38 3.56,0.64 7.18,0.94 10.86,0.94 21.36,0 44.56,-10.24 66.83,-25.91 -12.68,5.62 -25.27,8.85 -37.28,8.85 -3.68,0 -7.31,-0.3 -10.87,-0.93 -23.13,-4.12 -43.79,-23.82 -49.79,-34.39 -0.75,-1.34 -1.39,-2.65 -1.92,-3.93 l -29.53,17.07 c -1.29,-3.14 -1.89,-6.14 -1.88,-9.06 0,-5.89 2.44,-11.51 6.6,-17.51 m 235.42,251.24 v 36.77 l 0.02,-0.02 v -36.72 c -0.01,-0.02 -0.02,-0.02 -0.02,-0.03 v 0 0 1.26 -1.26 0 m 19.32,14.27 c 3.02,1.91 6.27,3.81 9.64,5.55 v 0 0 l -28.94,16.93 v 0.35 l -0.02,-0.06 v 0.09 c 8.26,4.17 17.21,7.34 25.38,7.34 4.48,0 8.73,-0.96 12.5,-3.23 v 0.02 l 8.03,-4.64 h -0.01 v 0 0 l 19.48,-11.32 0.12,-0.07 c -3.26,1.53 -6.84,2.2 -10.58,2.2 -11.7,0 -25.01,-6.5 -35.6,-13.16 m 185.63,6.07 c -0.19,0.43 -0.39,0.85 -0.59,1.27 -0.27,0.56 -0.54,1.1 -0.82,1.62 0.28,-0.52 0.55,-1.06 0.82,-1.62 0.2,-0.42 0.4,-0.84 0.59,-1.27 m -1.44,2.95 c -0.01,0.02 -0.02,0.04 -0.03,0.07 0.01,-0.03 0.02,-0.05 0.03,-0.07 m -116.29,6.37 c 2.31,1.76 4.86,3.58 7.58,5.31 v 0 0 l -28.93,17.42 c -5.1,-3.2 -9.65,-6.69 -13.23,-9.7 9.43,7.93 25.57,19.3 40.76,19.3 4.66,0 9.23,-1.07 13.49,-3.64 l 18.6,-10.74 c 5.83,3.58 15.26,8.23 24.83,8.23 4.2,0 8.42,-0.89 12.37,-3.16 v 0.08 l 29.27,-16.91 c -3.85,2.14 -7.94,2.99 -12.02,2.99 -4.76,0 -9.49,-1.16 -13.77,-2.76 l -30.35,16.65 c -3.99,-1.58 -7.55,-3.43 -10.3,-5.14 v 0 0 l 9.1,-5.31 c -3.73,1.86 -7.67,2.65 -11.67,2.65 -12.75,0 -26.18,-8.01 -35.73,-15.27 m -163.74,71.63 -29.54,17.07 v 0.01 c 0,24.4 17.13,54.07 38.26,66.26 6.13,3.55 11.92,5.22 17.05,5.22 3.61,0 6.9,-0.83 9.75,-2.42 l 0.01,0.02 0.2,-0.12 0.07,-0.04 28.68,-16.58 c -2.7,1.38 -5.78,2.09 -9.13,2.09 -5.14,0 -10.95,-1.68 -17.09,-5.22 -21.13,-12.2 -38.26,-41.87 -38.26,-66.27 v -0.02 m 76.52,44.2 c 0,0.06 0,0.12 0,0.18 0,-0.06 0,-0.12 0,-0.18 v 0 m 0,0.23 c 0,0.05 -0.01,0.1 -0.01,0.15 0,-0.05 0.01,-0.1 0.01,-0.15 m -0.01,0.18 c 0,0.06 0,0.12 0,0.17 0,-0.05 0,-0.11 0,-0.17 m 0,0.23 c 0,0.04 0,0.08 0,0.12 0,-0.04 0,-0.08 0,-0.12 m 0,0.19 c 0,0.05 0,0.1 0,0.15 0,-0.05 0,-0.1 0,-0.15 m -0.01,0.23 c 0,0.03 0,0.06 0,0.08 0,-0.02 0,-0.05 0,-0.08 m -0.01,0.45 v 0 0"
         style="fill:#bde9e1;fill-opacity:1;fill-rule:nonzero;stroke:none"
         id="path124" /><path
         d="m 3639.78,3126.04 c -11.67,14.87 -23.56,30.95 -36.08,46 12.54,-15.05 24.42,-31.13 36.08,-46"
         style="fill:#bde9e1;fill-opacity:1;fill-rule:nonzero;stroke:none"
         id="path126" /><path
         d="m 3742.71,3001.22 -29.56,17.07 v 43.42 c 0,0 -17.56,5.89 -41.91,28.53 -10.53,9.85 -20.91,22.33 -31.46,35.8 10.57,-13.47 20.96,-25.95 31.5,-35.78 24.28,-22.65 41.88,-28.54 41.88,-28.54 v -43.42 l 29.54,-17.06 0.01,0.01 v -0.03"
         style="fill:#a5e0d0;fill-opacity:1;fill-rule:nonzero;stroke:none"
         id="path128" /><path
         d="m 3603.7,3172.04 c -2.26,2.71 -4.55,5.4 -6.86,8.03 -13.4,15.33 -25.3,26.5 -32.31,36.6 7.01,-10.1 18.91,-21.26 32.3,-36.57 2.31,-2.65 4.6,-5.34 6.87,-8.06"
         style="fill:#a5e0d0;fill-opacity:1;fill-rule:nonzero;stroke:none"
         id="path130" /><path
         d="m 3742.7,3001.24 -29.54,17.06 v 43.42 c 0,0 -17.6,5.89 -41.88,28.54 -10.54,9.83 -20.93,22.31 -31.5,35.78 -11.66,14.87 -23.54,30.95 -36.08,46 -2.27,2.72 -4.56,5.41 -6.87,8.06 -13.39,15.31 -25.29,26.47 -32.3,36.57 -4.16,6 -6.6,11.62 -6.6,17.51 -0.01,2.92 0.59,5.92 1.88,9.06 l 29.53,-17.07 c -1.28,-3.15 -1.88,-6.15 -1.87,-9.08 0.04,-15.81 17.58,-29.66 38.91,-54.05 5.91,-6.76 11.67,-13.83 17.32,-20.99 17.87,-22.67 34.64,-46.17 51.63,-63.49 1.83,-1.86 3.66,-3.65 5.49,-5.36 1.31,-1.21 2.59,-2.38 3.85,-3.5 21.94,-19.51 37.58,-24.92 38.03,-25.07 v -43.39"
         style="fill:#7ed3c2;fill-opacity:1;fill-rule:nonzero;stroke:none"
         id="path132" /><path
         d="m 3693.89,3254.39 h -0.01 v 331.89 l 0.01,-0.01 v -331.88"
         style="fill:#a5e0d0;fill-opacity:1;fill-rule:nonzero;stroke:none"
         id="path134" /><path
         d="m 3723.43,3236.13 c -9.71,7.21 -19.63,13.43 -29.54,18.26 v 331.88 l 29.54,-17.07 v -333.07"
         style="fill:#7ed3c2;fill-opacity:1;fill-rule:nonzero;stroke:none"
         id="path136" /><path
         d="m 3799.97,3467.94 v 36.72 l 28.94,-16.93 c -3.37,-1.74 -6.62,-3.64 -9.64,-5.55 -10.79,-6.79 -18.76,-13.77 -19.3,-14.24"
         style="fill:#7ed3c2;fill-opacity:1;fill-rule:nonzero;stroke:none"
         id="path138" /><path
         d="m 3845.86,3504.53 v 0 c 1.38,1.35 3.71,3.54 6.73,6.07 -3.01,-2.54 -5.34,-4.72 -6.73,-6.07"
         style="fill:#a5e0d0;fill-opacity:1;fill-rule:nonzero;stroke:none"
         id="path140" /><path
         d="m 3873.97,3486.02 c -2.46,3.32 -5.34,5.63 -8.52,7.12 l -0.12,0.07 -19.48,11.32 h 0.01 v 0 c 1.39,1.35 3.72,3.53 6.73,6.07 3.58,3.01 8.13,6.5 13.23,9.7 l 28.93,-17.42 c -2.72,-1.73 -5.27,-3.55 -7.58,-5.31 -3.75,-2.85 -6.91,-5.59 -9.19,-7.68 -2.53,-2.32 -3.99,-3.84 -4.01,-3.86 v -0.01 0"
         style="fill:#7ed3c2;fill-opacity:1;fill-rule:nonzero;stroke:none"
         id="path142" /><path
         d="m 3949.14,3494.45 c -4.12,8.07 -9.12,13.04 -14.57,15.74 l -9.1,5.31 c 2.75,1.71 6.31,3.56 10.3,5.14 l 30.35,-16.65 c -9.66,-3.63 -16.98,-9.54 -16.98,-9.54"
         style="fill:#7ed3c2;fill-opacity:1;fill-rule:nonzero;stroke:none"
         id="path144" /><path
         d="m 3799.97,3504.66 v 0 m 0,0 -0.02,0.02 v 0.27 l 0.02,0.06 v -0.35"
         style="fill:#7ed3c2;fill-opacity:1;fill-rule:nonzero;stroke:none"
         id="path146" /><path
         d="m 3742.7,3001.24 v 43.42 c 0,0 -17.6,5.89 -41.88,28.54 -24.27,22.65 -47.79,59.36 -74.44,89.84 -26.89,30.76 -47.77,44.75 -35.12,67.06 6,10.57 26.66,30.27 49.79,34.39 25.65,4.56 54.89,-7.96 82.38,-28.36 v 333.09 c 0,24.4 17.13,54.07 38.26,66.27 21.13,12.2 38.26,2.3 38.26,-22.09 v -145.49 c 0,0 52.72,46.82 74.02,18.11 0,0 51.79,54.25 75.17,8.43 0,0 38.02,30.71 55.17,-4.93 17.15,-35.64 8.92,-110.91 0,-157.39 -8.91,-46.47 -36.81,-157.69 -36.81,-157.69 v -43.41 l -224.8,-129.79"
         style="fill:#26b6a6;fill-opacity:1;fill-rule:nonzero;stroke:none"
         id="path148" /><path
         d="m 3742.7,3001.24 v 43.42 c 0,0 -15.76,5.27 -38.03,25.04 -1.26,1.12 -2.54,2.29 -3.85,3.5 -1.83,1.71 -3.66,3.5 -5.49,5.36 -16.99,17.33 -33.75,40.84 -51.63,63.49 -5.65,7.16 -11.41,14.23 -17.32,20.99 -21.33,24.39 -38.87,38.24 -38.91,54.05 -0.01,4.13 1.17,8.39 3.79,13.01 6,10.57 26.66,30.27 49.79,34.39 3.56,0.63 7.19,0.93 10.87,0.93 22.86,0 47.83,-11.72 71.51,-29.29 v 333.09 c 0,24.4 17.13,54.07 38.26,66.27 6.14,3.54 11.95,5.22 17.09,5.22 12.55,0 21.17,-10 21.17,-27.31 v -108.36 -0.09 -0.27 -36.77 0 0 0 -62.46 c 0,0 4.8,66.37 29.19,82.16 l -0.87,-0.25 c -15.45,-8.06 -28.2,-19.33 -28.32,-19.45 0.2,0.18 30.96,27.43 54.92,27.43 7.37,0 14.1,-2.58 19.1,-9.32 v 0 -60.72 c 0,0 6.74,62.44 20.73,77.53 -7.07,-4.51 -13.03,-9.57 -16.72,-12.94 8.1,7.42 27.17,22.95 44.92,22.95 9.85,0 19.29,-4.78 26.24,-18.39 0,0 15.22,12.3 30.75,12.3 9.01,0 18.12,-4.14 24.42,-17.23 7.3,-15.18 10,-37.54 10.01,-61.8 0,-32.72 -4.89,-68.9 -10.01,-95.59 -8.91,-46.47 -36.81,-157.69 -36.81,-157.69 v -43.41 l -224.8,-129.79 m 223.38,502.73 c -9.61,-3.62 -16.89,-9.48 -16.94,-9.52 v -60.95 c 0,0 3.72,61.4 16.94,70.47"
         style="fill:#94dbd1;fill-opacity:1;fill-rule:nonzero;stroke:none"
         id="path150" /><path
         d="m 3799.95,3405.45 v 62.46 0 c 0.12,0.12 12.87,11.39 28.32,19.45 l 0.87,0.25 c -24.39,-15.79 -29.19,-82.16 -29.19,-82.16"
         style="fill:#82d4c4;fill-opacity:1;fill-rule:nonzero;stroke:none"
         id="path152" /><path
         d="m 3873.97,3486.02 v 0.01 c 0.02,0.02 1.48,1.54 4.01,3.86 -2.55,-2.34 -4.01,-3.87 -4.01,-3.87"
         style="fill:#6fcdb6;fill-opacity:1;fill-rule:nonzero;stroke:none"
         id="path154" /><path
         d="m 3873.97,3425.3 v 60.72 c 0,0 1.46,1.53 4.01,3.87 3.69,3.37 9.65,8.43 16.72,12.94 -13.99,-15.09 -20.73,-77.53 -20.73,-77.53"
         style="fill:#82d4c4;fill-opacity:1;fill-rule:nonzero;stroke:none"
         id="path156" /><path
         d="m 3949.14,3433.5 v 60.95 c 0.05,0.04 7.33,5.9 16.94,9.52 -13.22,-9.07 -16.94,-70.47 -16.94,-70.47"
         style="fill:#82d4c4;fill-opacity:1;fill-rule:nonzero;stroke:none"
         id="path158" /><path
         d="m 3414.67,1361.37 v 0 c 0,0 -59.81,21.09 -131.02,50.08 l 66.23,38.23 c 54.92,-24.36 101.6,-44.27 123.81,-54.23 l -59.02,-34.08"
         style="fill:#29444e;fill-opacity:1;fill-rule:nonzero;stroke:none"
         id="path160" /><path
         d="m 3446.57,1254.14 -31.9,107.23 59.02,34.08 c 3.6,-1.61 6.55,-2.96 8.8,-4.03 19.53,-9.3 29.75,-45.72 38.74,-94.17 l -74.66,-43.11"
         style="fill:#1f3239;fill-opacity:1;fill-rule:nonzero;stroke:none"
         id="path162" /><path
         d="m 3283.65,1411.45 v 0 l 61.52,35.52 -37.33,21.54 c 14.35,-6.49 28.45,-12.8 42.04,-18.83 l -66.23,-38.23 m -211.54,193.06 -13.89,8.01 c 0.88,1.43 1.8,2.88 2.76,4.32 3.42,-4.06 7.11,-8.18 11.13,-12.33"
         style="fill:#122026;fill-opacity:1;fill-rule:nonzero;stroke:none"
         id="path164" /><path
         d="m 3283.65,1411.45 c -72.42,29.48 -156.61,67.12 -201.69,99.06 -41.29,29.26 -46.79,64.3 -23.74,102.01 l 13.89,-8.01 c 24.66,-25.52 61.72,-52.89 123.35,-83.23 36.36,-17.9 75.24,-35.97 112.38,-52.77 l 37.33,-21.54 -61.52,-35.52"
         style="fill:#1f3239;fill-opacity:1;fill-rule:nonzero;stroke:none"
         id="path166" /><path
         d="m 3731.04,1203.03 c 0,0 -53.38,-130.84 -56.1,-182.45 -2.84,-53.771 -15.83,-71.592 -6.71,-130.092 1.98,-12.726 8.67,-38.277 10.34,-48.617 1.48,-9.211 -1.97,-16.609 -13.82,-19.07 -23.34,-4.84 -62.09,39 -80.54,86.699 -18.44,47.699 -44.59,155.31 -46.21,168.19 -1.57,12.42 2.56,27.88 7.39,37.65 8.45,17.14 10.72,19.49 10.72,19.49 7.72,23.41 11.42,67.92 17.94,98.71 l 156.99,-30.51"
         style="fill:#f6879f;fill-opacity:1;fill-rule:nonzero;stroke:none"
         id="path168" /><path
         d="m 3492.36,1028.67 c 0,0 -5.89,-10.74 -6.25,-17.63 -0.56,-10.73 23.67,-46.071 33.17,-58.938 9.5,-12.872 18.8,-28.993 17.5,-61.133 -1.39,-34.348 13.77,-67.399 35.95,-95.719 22.17,-28.32 60.65,-59.34 117.3,-76.77 56.65,-17.441 76.63,10.95 76.63,10.95 0,0 17.56,27.34 7.01,38.539 -10.57,11.203 -281.31,260.701 -281.31,260.701"
         style="fill:#17282f;fill-opacity:1;fill-rule:nonzero;stroke:none"
         id="path170" /><path
         d="m 3556.11,1134.83 c -1.72,0.06 -4.77,0.55 -9.21,-4.8 -1.68,-2.03 -12.01,-27.5 -20.59,-40.87 -9.18,-14.32 -31.07,-38.77 -33.95,-60.49 13.11,-41.998 52.51,-71.221 58.43,-110.881 5.91,-39.641 6.58,-85.668 67.52,-134.187 60.94,-48.532 123.59,-53.543 146.11,-40.692 22.52,12.84 20.46,36.961 -10.93,82.91 -33.32,48.77 -55.76,154.442 -55.77,154.481 -3.11,14.621 -4.72,30.059 -5.89,44.949 -1.14,14.47 3.08,29.92 4.21,44.47 0.53,6.88 0.8,14.29 -2.85,20.15 -3.64,5.86 -10.4,8.89 -16.76,11.59 -10.17,4.31 -20.43,8.65 -31.3,10.6 -10.87,1.96 -22.54,1.33 -32.25,-3.9 -7.04,-3.78 -12.79,-9.8 -20.16,-12.86 -9.89,-4.09 -22.07,-1.91 -29.92,5.35 -11.58,10.71 -9.88,20.35 -8.1,27.5 l 1.41,6.68"
         style="fill:#33535f;fill-opacity:1;fill-rule:nonzero;stroke:none"
         id="path172" /><path
         d="m 3582.69,822.488 c 0,0 23.61,48.012 88.32,47.774 64.7,-0.25 87.09,-33.184 96.93,-52.543 11.72,-23.059 23.94,-64.848 -2.77,-76.84 -28.84,-12.957 -62.25,-8.949 -114.79,17.391 -52.55,26.339 -67.69,64.218 -67.69,64.218"
         style="fill:#fafaf9;fill-opacity:1;fill-rule:nonzero;stroke:none"
         id="path174" /><path
         d="m 3594.48,1017.39 c 1.83,-0.87 4.02,-0.93 5.91,0.03 10,5.1 62.87,16.16 93.67,-12.42 3.99,3.2 3.18,9.05 -1.93,17.29 -36.04,22.89 -86.1,12.68 -98.16,6.51 -3.16,-1.61 -4.29,-5.46 -2.51,-8.59 0.71,-1.28 1.78,-2.22 3.02,-2.82"
         style="fill:#fafaf9;fill-opacity:1;fill-rule:nonzero;stroke:none"
         id="path176" /><path
         d="m 3700.72,967.301 c 2.21,5.719 -0.57,14.558 -3.74,17.769 -35.55,19.29 -82.05,9.649 -93.63,3.75 -3.16,-1.609 -4.27,-5.449 -2.5,-8.59 0.71,-1.281 1.77,-2.23 3.01,-2.82 1.84,-0.871 4.03,-0.93 5.91,0.031 9.71,4.95 59.87,15.391 90.95,-10.14"
         style="fill:#fafaf9;fill-opacity:1;fill-rule:nonzero;stroke:none"
         id="path178" /><path
         d="m 3727.1,879.859 c 0.28,7.922 -2.54,15.77 -8.27,23.422 -35.92,21.649 -84.81,11.649 -96.71,5.578 -3.16,-1.609 -4.28,-5.468 -2.52,-8.597 0.73,-1.274 1.79,-2.223 3.03,-2.813 1.84,-0.867 4.02,-0.929 5.91,0.031 10.55,5.372 68.86,17.36 98.56,-17.621"
         style="fill:#fafaf9;fill-opacity:1;fill-rule:nonzero;stroke:none"
         id="path180" /><path
         d="m 3613.25,937.43 c 1.83,-0.871 4.02,-0.93 5.9,0.031 9.89,5.039 61.68,15.82 92.62,-11.531 1.41,6 -0.29,12.449 -5.4,19.16 -35.56,19.301 -82.07,9.648 -93.64,3.75 -3.15,-1.61 -4.28,-5.461 -2.5,-8.59 0.71,-1.281 1.78,-2.23 3.02,-2.82"
         style="fill:#fafaf9;fill-opacity:1;fill-rule:nonzero;stroke:none"
         id="path182" /><path
         d="m 3788.53,1042.36 c 0,0 26.46,-159.59 55.88,-221.508 29.42,-61.922 44.54,-91.821 85.07,-138.672 8.83,-10.2 28.93,-29.16 36.15,-37.41 6.43,-7.348 7.46,-15.84 -1.69,-24.579 -18.02,-17.242 -94.43,-21.332 -137.26,10.77 -42.82,32.098 -81.81,100.48 -107.35,126.32 -9.59,9.707 -18.62,19.629 -27.22,30.16 -8.28,10.161 -6.01,19.809 -6.74,31.18 -0.36,5.5 0.44,20.52 0.44,20.52 -5.86,26.871 -21.72,69.039 -30.14,95.23 l 132.86,107.989"
         style="fill:#f6879f;fill-opacity:1;fill-rule:nonzero;stroke:none"
         id="path184" /><path
         d="m 3670.71,718.559 c 0,0 -0.77,-12.797 1.96,-19.469 4.27,-10.41 42.98,-33.02 57.72,-40.961 14.74,-7.93 30.74,-19.039 43.86,-50.027 14.03,-33.133 43.15,-57.633 76.78,-74.532 33.63,-16.89 83.9,-29.05 145.29,-20.242 61.4,8.813 67.62,44.594 67.62,44.594 0,0 4.41,33.719 -10.59,39.598 -14.99,5.871 -382.64,121.039 -382.64,121.039"
         style="fill:#17282f;fill-opacity:1;fill-rule:nonzero;stroke:none"
         id="path186" /><path
         d="m 3683.62,847.488 c -1.66,-0.707 -4.76,-1.597 -6.57,-8.648 -0.69,-2.668 0.91,-31.391 -1.22,-47.879 -2.3,-17.641 -12.09,-50.563 -5.12,-72.402 31.17,-33.887 81.5,-43.938 104.81,-78.821 23.31,-34.879 44.5,-78.129 123.85,-96.828 79.34,-18.691 140.86,4.551 156.44,26.762 15.56,22.207 2.84,44.117 -47.39,73.578 -53.31,31.27 -121.75,121.23 -121.77,121.27 -9.48,12.449 -17.9,26.339 -25.65,39.902 -7.55,13.187 -10.46,29.687 -15.9,43.969 -2.57,6.75 -5.61,13.871 -11.69,17.789 -6.06,3.922 -13.81,3.761 -21.03,3.48 -11.55,-0.461 -23.2,-0.941 -34.36,-3.949 -11.15,-3 -21.91,-8.813 -28.78,-18.109 -4.96,-6.711 -7.71,-14.981 -13.33,-21.161 -7.53,-8.293 -20.02,-11.671 -30.7,-8.3 -15.74,4.961 -18.43,14.839 -19.94,22.398 l -1.65,6.949"
         style="fill:#33535f;fill-opacity:1;fill-rule:nonzero;stroke:none"
         id="path188" /><path
         d="m 3848.29,563.809 c 0,0 0.89,55.972 62.23,84.64 61.34,28.672 97.24,7.52 115.2,-6.41 21.39,-16.578 51.62,-50.668 31.71,-73.949 -21.52,-25.141 -54.92,-36.281 -116.41,-34.82 -61.48,1.449 -92.73,30.539 -92.73,30.539"
         style="fill:#fafaf9;fill-opacity:1;fill-rule:nonzero;stroke:none"
         id="path190" /><path
         d="m 3772.38,753.5 c 2.13,-0.012 4.23,0.922 5.57,2.672 7.19,9.289 52.29,43.367 94.2,30.09 2.35,4.808 -1.03,9.976 -9.55,15.5 -44.33,5.558 -87.14,-26.473 -95.8,-37.692 -2.27,-2.929 -1.61,-7.09 1.47,-9.261 1.24,-0.879 2.67,-1.297 4.11,-1.309"
         style="fill:#fafaf9;fill-opacity:1;fill-rule:nonzero;stroke:none"
         id="path192" /><path
         d="m 3895.29,753.551 c -0.45,6.41 -7.04,13.539 -11.48,15.148 -42.25,2.383 -81.95,-27.519 -90.27,-38.269 -2.28,-2.93 -1.61,-7.071 1.46,-9.258 1.25,-0.883 2.69,-1.301 4.12,-1.313 2.13,-0.007 4.22,0.911 5.57,2.672 6.98,9.008 49.79,41.301 90.6,31.02"
         style="fill:#fafaf9;fill-opacity:1;fill-rule:nonzero;stroke:none"
         id="path194" /><path
         d="m 3959.31,682.602 c -3.27,7.617 -9.45,13.777 -18.29,18.468 -43.65,4.442 -85.45,-26.859 -94,-37.922 -2.28,-2.937 -1.61,-7.089 1.46,-9.257 1.25,-0.891 2.69,-1.309 4.12,-1.309 2.12,-0.012 4.22,0.906 5.58,2.668 7.58,9.801 57.4,47.18 101.13,27.352"
         style="fill:#fafaf9;fill-opacity:1;fill-rule:nonzero;stroke:none"
         id="path196" /><path
         d="m 3825.86,686.219 c 2.12,-0.008 4.22,0.922 5.57,2.66 7.11,9.191 51.3,42.531 92.79,30.473 -1.34,6.296 -5.83,11.636 -13.67,15.707 -42.27,2.382 -81.96,-27.52 -90.27,-38.27 -2.28,-2.937 -1.61,-7.09 1.46,-9.258 1.25,-0.883 2.69,-1.301 4.12,-1.312"
         style="fill:#fafaf9;fill-opacity:1;fill-rule:nonzero;stroke:none"
         id="path198" /><path
         d="m 3436.42,1951.16 c 65.43,-47.96 293.3,-179.5 385.83,-265.15 26.73,-24.74 35.53,-57.31 28.96,-128.3 -8.93,-96.34 -84.64,-424.67 -84.64,-424.67 -10.42,-18.53 -28.76,16.63 -28.76,16.63 l -361.09,458.42 59.7,343.07"
         style="fill:#26b6a6;fill-opacity:1;fill-rule:nonzero;stroke:none"
         id="path200" /><path
         d="m 3768.92,1143.33 c -5.87,30.09 -12,61.38 -18.02,91.95 1.97,18.3 -18.31,159.22 -35.5,249.54 -7.16,37.67 -28.55,58.13 -49.47,74.68 -2.61,2.07 -5.25,4.17 -7.93,6.29 L 3836.74,1669 c -4,6.09 -8.69,11.61 -14.21,16.75 20.9,-19.48 30.74,-43.86 30.76,-87.96 0,-11.84 -0.7,-25.11 -2.08,-40.08 -7.99,-86.19 -69.42,-358.03 -82.29,-414.38 m 53.56,542.47 c -0.08,0.07 -0.15,0.14 -0.23,0.21 -0.09,0.09 -0.19,0.18 -0.28,0.27 0.09,-0.09 0.18,-0.18 0.28,-0.27 0.08,-0.07 0.15,-0.14 0.23,-0.21 m -0.72,0.67 c -0.03,0.02 -0.04,0.04 -0.07,0.06 0.02,-0.02 0.04,-0.04 0.07,-0.06 m -128.24,97.13 c -39.39,26.75 -81.17,53.65 -119.95,78.35 l -93.53,-54 c -0.06,0 -0.13,0 -0.19,0.01 -7.73,0.23 -14.79,0.85 -21.62,1.59 2.08,20.76 1.33,42.41 -4.91,60.2 v 0 c 0.01,0.49 0.01,0.98 0.01,1.48 0,13.16 -1.26,26.84 -4.21,40.84 5.16,7.03 9.27,14.25 12.2,21.62 0,0 -0.02,0.1 -0.08,0.29 53.47,-35.65 148.31,-93.35 232.28,-150.38"
         style="fill:#06ab91;fill-opacity:1;fill-rule:nonzero;stroke:none"
         id="path202" /><path
         d="m 3750.9,1235.28 c -17.59,89.36 -34.26,172.62 -40.99,202.15 -9.42,41.29 -9.61,63.06 -60.88,108.44 -2.83,2.5 -6.29,5.46 -10.29,8.8 l 19.26,11.12 c 2.68,-2.12 5.32,-4.22 7.93,-6.29 20.92,-16.55 42.31,-37.01 49.47,-74.68 17.19,-90.32 37.47,-231.24 35.5,-249.54 m -292.67,574.27 c -4.52,0.5 -8.94,1.04 -13.37,1.56 4.88,17.61 8.3,37.44 8.46,58.64 v 0 c 6.24,-17.79 6.99,-39.44 4.91,-60.2"
         style="fill:#0b7062;fill-opacity:1;fill-rule:nonzero;stroke:none"
         id="path204" /><path
         d="m 3436.42,1951.16 -464.8,-102.91 c 22.69,-85.31 29.17,-129.37 52.86,-174.3 23.77,-45.08 50.09,-93.15 170.98,-152.67 116.4,-57.31 258.58,-116.34 287.03,-129.86 21.43,-10.2 31.65,-53.06 41.34,-108.63 10.15,-58.29 11.08,-103.9 68.73,-226.23 56.46,-119.771 67.99,-145.662 67.99,-145.662 0,0 87.35,-9.078 145.33,41.934 0,0 -79.11,410.668 -95.97,484.598 -9.42,41.29 -9.61,63.06 -60.88,108.44 -43.96,38.89 -240.27,187.48 -240.27,187.48 0,0 77.96,104.72 27.66,217.81"
         style="fill:#26b6a6;fill-opacity:1;fill-rule:nonzero;stroke:none"
         id="path206" /><path
         d="m 3676.52,910.281 c -9.94,0 -15.97,0.617 -15.97,0.617 0,0 -3.28,7.372 -14.92,32.43 -1.71,3.684 -3.6,7.762 -5.69,12.242 -3.55,7.629 -7.67,16.45 -12.44,26.641 -1.78,3.809 -3.66,7.82 -5.63,12.027 -3.76,8.012 -7.85,16.732 -12.32,26.242 -1.8,3.82 -3.66,7.78 -5.58,11.86 -3.58,7.61 -7.38,15.68 -11.41,24.22 -57.65,122.33 -58.58,167.94 -68.73,226.23 -0.86,4.92 -1.72,9.75 -2.6,14.46 -8.99,48.45 -19.21,84.87 -38.74,94.17 -2.25,1.07 -5.2,2.42 -8.8,4.03 -27.71,12.42 -93.49,40.33 -165.85,73.06 -37.14,16.8 -76.02,34.87 -112.38,52.77 -61.63,30.34 -98.69,57.71 -123.35,83.23 -23.72,24.53 -35.98,47.35 -47.63,69.44 -12.52,23.74 -20.24,47.25 -28.07,76.72 -2.05,7.68 -4.1,15.76 -6.24,24.37 5.76,-0.61 11.7,-1.09 17.75,-1.46 51.53,-25.53 98.95,-44.89 121.9,-44.89 5.87,0 10.15,1.27 12.48,4.03 v 0 0 0 0 l 91.24,-31.5 v 0.01 l 1.31,-0.51 c 8.45,-3.17 16.19,-9.23 32.73,-15.45 l -97.57,-56.34 c -2.47,-1.43 -2.47,-5 0,-6.43 l 293.09,-169.24 175.64,101.41 c 4,-3.34 7.46,-6.3 10.29,-8.8 51.27,-45.38 51.46,-67.15 60.88,-108.44 16.86,-73.93 95.97,-484.598 95.97,-484.598 -42.75,-37.613 -101.47,-42.551 -129.36,-42.551 m -362.68,880.699 c -11.15,0 -23.23,1.32 -36.76,4.47 l -19.38,10.34 c 84.65,24.78 158.9,61.94 191.42,106.28 2.95,-14 4.21,-27.68 4.21,-40.84 -0.01,-21.76 -3.47,-42.09 -8.47,-60.12 -5.51,0.65 -11.04,1.26 -16.83,1.67 -4.22,0.31 -8.74,0.76 -13.17,0.76 -3.57,0 -7.09,-0.29 -10.37,-1.19 -7.16,-1.94 -14.3,-4.03 -21.32,-6.45 -22.33,-7.73 -43.28,-14.92 -69.33,-14.92"
         style="fill:#06ab91;fill-opacity:1;fill-rule:nonzero;stroke:none"
         id="path208" /><path
         d="m 3970.68,2723.3 c -7.81,0.78 -15.86,-1.26 -23.03,-4.63 -8.5,-4 -16,-9.79 -23.55,-15.36 -11.57,-8.51 -23.43,-16.61 -35.57,-24.27 -10.8,-6.81 -22.19,-14.44 -35.05,-16.56 -4.31,-0.72 -13.48,-0.86 -8.79,5.67 6.12,8.53 12.99,16.63 17.56,26.07 4.57,9.45 6.62,20.75 2.59,30.44 -1.22,2.92 -3.11,5.75 -5.99,7.08 -4.06,1.87 -6.13,-0.3 -8.46,-2.97 -2.46,-2.8 -5.39,-5.19 -8.21,-7.67 -5.8,-5.13 -11.6,-10.26 -17.32,-15.46 -33.45,-30.38 -74.11,-56.71 -88.42,-100.59 -2.07,-6.35 -11.54,-35.29 -11.85,-83.47 -0.3,-48.19 -3.15,-215.9 -3.15,-215.9 0,0 -133.19,112.03 -190.97,160.3 -27.85,23.28 -66.78,51.55 -109.67,55.62 -30.37,2.88 -48.08,2.7 -48.08,2.7 l 90.85,-220.23 c 0,0 171.78,-127.8 254.14,-171.8 74.33,-39.71 110.48,-11.11 119.46,9.72 14.89,34.55 30.17,50.74 9.21,243.52 -1.5,14.93 -3.35,57.61 -5.03,72.51 -2.17,31.11 1.36,62.74 13.42,69.5 22.18,12.44 43.9,25.98 63.02,42.75 12.59,11.02 24.03,23.48 33.32,37.44 3.89,5.85 10.66,14.35 11.39,21.51 0.75,7.25 -2.44,14.93 -0.23,22.09 1.49,4.88 4.79,8.87 6.02,14.09 2.51,10.62 1.59,22.81 8.35,32.02 3.72,5.06 9.91,9.62 9.05,15.84 -0.68,4.98 -5.8,8.12 -10.69,9.3 -1.42,0.35 -2.87,0.6 -4.32,0.74"
         style="fill:#f6879f;fill-opacity:1;fill-rule:nonzero;stroke:none"
         id="path210" /><path
         d="m 3834.8,2639.65 c -3.74,-25.99 -22.29,-58.46 -34.73,-69.37 0,0 20.76,11.8 29.52,29.93 9.6,19.87 8.52,29.97 5.21,39.44"
         style="fill:#f47089;fill-opacity:1;fill-rule:nonzero;stroke:none"
         id="path212" /><path
         d="m 3363.55,2528.76 c 46.37,-2.02 82.5,-3.06 122.03,-25.88 39.53,-22.82 216.07,-170.59 216.07,-170.59 0,0 1.74,75.23 6.25,114.87 3.13,27.47 7.69,36.11 16.26,34.74 0,0 15.32,-23.48 58.7,-26.73 43.38,-3.25 57.95,14.76 57.95,14.76 0,0 12.65,2.97 17.2,-14.76 4.55,-17.73 12.74,-209.91 4.82,-265.29 -7.91,-55.37 -32.73,-81.1 -65.99,-88.9 -33.26,-7.79 -110.35,38.82 -202.94,101.09 -92.59,62.26 -193.12,120.31 -193.12,120.31 l -37.23,206.38"
         style="fill:#26b6a6;fill-opacity:1;fill-rule:nonzero;stroke:none"
         id="path214" /><path
         d="m 3788.8,2100.13 c -36.65,0 -109.12,44.25 -194.9,101.94 -67.47,45.37 -139.15,88.5 -173.09,108.56 -0.4,20.4 -0.84,37.31 -1.22,48.37 -2.98,87.46 -16.02,156.28 -55.96,169.75 46.33,-2.01 82.44,-3.06 121.95,-25.87 31.38,-18.11 149.07,-114.94 196.29,-154.13 -9.91,-59.63 23.59,-124.35 23.59,-124.35 v 0 0 c 0,0 -11.33,56.3 -3.81,107.89 v 0 0 c 0,0 1.74,75.23 6.25,114.87 2.92,25.64 7.09,34.88 14.61,34.88 0.54,0 1.09,-0.05 1.65,-0.14 0,0 15.32,-23.48 58.7,-26.73 3.59,-0.27 6.99,-0.39 10.19,-0.39 35.5,0 47.76,15.15 47.76,15.15 0,0 0.79,0.19 2.06,0.19 3.78,0 11.73,-1.67 15.14,-14.95 3.18,-12.38 8.13,-109.81 8.13,-186.34 0,-33.07 -0.92,-62.24 -3.31,-78.95 -7.91,-55.37 -32.73,-81.1 -65.99,-88.9 -2.45,-0.57 -5.13,-0.85 -8.04,-0.85"
         style="fill:#a1dfd6;fill-opacity:1;fill-rule:nonzero;stroke:none"
         id="path216" /><path
         d="m 3701.65,2332.29 c 0,0 -7.5,6.28 -19.78,16.46 0.06,0.32 0.11,0.64 0.17,0.96 l 19.61,-17.42"
         style="fill:#d1d2d0;fill-opacity:1;fill-rule:nonzero;stroke:none"
         id="path218" /><path
         d="m 3705.46,2224.4 c 0,0 -33.5,64.72 -23.59,124.35 12.28,-10.18 19.78,-16.46 19.78,-16.46 v 0 c -7.52,-51.59 3.81,-107.89 3.81,-107.89"
         style="fill:#8dd8c7;fill-opacity:1;fill-rule:nonzero;stroke:none"
         id="path220" /><path
         d="m 2982.38,2488.15 c -7.64,-40.51 -84.61,-425.48 2.94,-712.57 157.63,-18.6 434.5,53.78 476,158.11 0,0 -27.97,99.01 -40.09,147.41 2.56,79.43 -0.03,231 -1.64,277.9 -3.17,92.94 -17.69,164.83 -63.79,171.63 0,0 -92.58,3.65 -148.62,1.36 -48.4,-1.98 -84.76,-2.5 -84.76,-2.5 l -140.04,-41.34"
         style="fill:#fafaf9;fill-opacity:1;fill-rule:nonzero;stroke:none"
         id="path222" /><path
         d="m 3213.94,1876.24 c -10.19,22.59 -197.3,138.12 -197.3,138.12 0,0 2.85,53.51 13.99,151.97 11.14,98.47 14.43,216.48 -21.05,275.8 l -35.79,-1.4 c -20.23,-119.43 -61.36,-426.13 11.53,-665.15 84.04,-9.91 201.97,6.04 300.06,38.9 -18.09,12.14 -63.33,43.76 -71.44,61.76"
         style="fill:#ededeb;fill-opacity:1;fill-rule:nonzero;stroke:none"
         id="path224" /><path
         d="m 3106.19,2619.85 c 0.3,19.91 -37.87,79.42 -55.16,126.49 -28.91,78.71 -31.43,149.36 39.9,180.04 0,0 44.6,76.9 157.03,80.73 112.43,3.82 198.85,-91.08 161.51,-217.97 l -303.28,-169.29"
         style="fill:#33535f;fill-opacity:1;fill-rule:nonzero;stroke:none"
         id="path226" /><path
         d="m 3133.97,2741.44 c -14.68,0 -20.02,21.08 -30.1,32.39 -10.07,11.32 -44.8,24.05 -67.18,-8.34 -20.77,-30.08 -0.58,-73.41 22.09,-90.18 28.55,-21.11 48.25,-0.74 48.25,-0.74 l -2.59,-158.89 c 0,0 5.06,-35.23 69.97,-55.68 74.96,-23.63 135.97,15.84 91.32,65.29 l 1.66,41.86 c 21.29,-4.8 50.38,-7.39 72.48,-4.03 25,3.8 45.03,22.63 57.88,61.18 25.09,75.25 18.12,175.61 -7.77,267.23 -24.74,-19.56 -139.19,-56.24 -242.28,-19.88 3.64,-63.29 0.62,-130.22 -13.73,-130.21"
         style="fill:#f6879f;fill-opacity:1;fill-rule:nonzero;stroke:none"
         id="path228" /><path
         d="m 3093.24,2692.39 c 0,-5.14 -4.16,-9.3 -9.31,-9.3 -5.14,0 -9.3,4.16 -9.3,9.3 0,5.14 4.16,9.3 9.3,9.3 5.15,0 9.31,-4.16 9.31,-9.3"
         style="fill:#17282f;fill-opacity:1;fill-rule:nonzero;stroke:none"
         id="path230" /><path
         d="m 3267.4,2567.15 c 0,0 -62.56,18.27 -87.24,35.58 -18.21,12.77 -34.43,33.1 -38.37,43.77 0,0 9.37,-33.54 26.44,-52.93 29.85,-33.93 98.35,-49.61 98.35,-49.61 l 0.82,23.19"
         style="fill:#f47089;fill-opacity:1;fill-rule:nonzero;stroke:none"
         id="path232" /><path
         d="m 3262.36,2742.3 c 0.16,-8.94 -6.67,-16.29 -15.27,-16.43 -8.6,-0.14 -15.71,6.99 -15.87,15.93 -0.17,8.93 6.67,16.29 15.27,16.42 8.59,0.14 15.7,-6.99 15.87,-15.92"
         style="fill:#17282f;fill-opacity:1;fill-rule:nonzero;stroke:none"
         id="path234" /><path
         d="m 3245.35,2795.4 -33.67,-17.74 c -4.72,9.67 -1.02,21.47 8.28,26.37 9.29,4.9 20.66,1.04 25.39,-8.63"
         style="fill:#17282f;fill-opacity:1;fill-rule:nonzero;stroke:none"
         id="path236" /><path
         d="m 3257.48,2660.45 53.54,-17.07 c -5.28,-14.99 -21.55,-23.32 -36.34,-18.6 -14.78,4.71 -22.49,20.68 -17.2,35.67"
         style="fill:#f47089;fill-opacity:1;fill-rule:nonzero;stroke:none"
         id="path238" /><path
         d="m 3389.45,2796.08 -36.98,10.13 c 2.44,10.4 12.69,16.56 22.9,13.76 10.21,-2.8 16.52,-13.49 14.08,-23.89"
         style="fill:#17282f;fill-opacity:1;fill-rule:nonzero;stroke:none"
         id="path240" /><path
         d="m 3379.89,2754.58 c 0.16,-8.93 -6.67,-16.29 -15.28,-16.42 -8.59,-0.14 -15.7,6.99 -15.87,15.93 -0.17,8.93 6.67,16.29 15.27,16.42 8.6,0.14 15.7,-6.99 15.88,-15.93"
         style="fill:#17282f;fill-opacity:1;fill-rule:nonzero;stroke:none"
         id="path242" /><path
         d="m 3397.11,2891.53 c 34.56,24.64 53.8,57.58 44.62,102.94 -13.48,-13.55 -51.3,-15.97 -84.37,-0.19 -35.29,16.84 -91.25,39.69 -169.57,24.53 -61.08,-11.83 -96.86,-58.27 -96.86,-92.43 11.96,-24.45 28.4,-37.48 56.77,-54.73 0,0 58.56,-47.92 147.39,-42.43 57.15,3.54 86.8,31.4 86.8,31.4 0,0 -31.93,-2.81 -46.88,7.11 0,0 36.26,5.38 62.1,23.8"
         style="fill:#273e47;fill-opacity:1;fill-rule:nonzero;stroke:none"
         id="path244" /><path
         d="m 3312.91,2680.3 47.7,21.76 -60.95,84.03 z"
         style="fill:#f47089;fill-opacity:1;fill-rule:nonzero;stroke:none"
         id="path246" /><path
         d="m 3822.53,1685.75 c -0.01,0.02 -0.03,0.03 -0.05,0.05 0.02,-0.02 0.04,-0.03 0.05,-0.05 m -0.56,0.53 c -0.07,0.06 -0.15,0.13 -0.21,0.19 0.06,-0.06 0.14,-0.13 0.21,-0.19 m -0.28,0.25 c -31.27,28.84 -77.77,62.84 -128.17,97.07 50.41,-34.23 96.9,-68.23 128.17,-97.07"
         style="fill:#29444e;fill-opacity:1;fill-rule:nonzero;stroke:none"
         id="path248" /><path
         d="m 3658,1565.79 c -47.01,37.33 -103.8,83.47 -147.91,119.67 2.46,1.19 4.68,1.91 6.58,1.91 0.76,0 1.47,-0.11 2.12,-0.36 1.83,-0.67 3.87,-1 5.92,-1 10.86,-0.01 22.13,9.35 4.43,26.91 -21.05,20.87 -51.58,49.8 -77.22,58.3 -0.2,0.06 -0.4,0.13 -0.62,0.2 0.75,2.84 1.47,5.78 2.15,8.8 2.28,0.51 4.55,1.11 6.8,1.87 8.56,2.88 16.73,7.62 22.26,14.76 2.23,2.87 3.8,7.46 0.99,9.76 -0.96,0.79 -2.21,1.26 -3.46,1.34 l 93.53,54 c 38.78,-24.7 80.56,-51.6 119.95,-78.35 50.4,-34.23 96.9,-68.23 128.17,-97.07 0.03,-0.02 0.04,-0.04 0.07,-0.06 0.06,-0.06 0.14,-0.13 0.21,-0.19 0.09,-0.09 0.19,-0.18 0.28,-0.27 0.08,-0.07 0.15,-0.14 0.23,-0.21 0.02,-0.02 0.04,-0.03 0.05,-0.05 5.52,-5.14 10.21,-10.66 14.21,-16.75 L 3658,1565.79"
         style="fill:#08907c;fill-opacity:1;fill-rule:nonzero;stroke:none"
         id="path250" /><path
         d="m 3638.74,1554.67 c -31.62,26.44 -96.88,76.98 -149.82,117.58 1.76,1.07 3.5,2.18 5.2,3.28 5.92,3.86 11.37,7.71 15.97,9.93 44.11,-36.2 100.9,-82.34 147.91,-119.67 l -19.26,-11.12 m -187.44,216.75 c -3.31,1.13 -8.26,3.31 -17.42,5.4 6.54,1.29 13.11,1.96 19.57,3.4 -0.68,-3.02 -1.4,-5.96 -2.15,-8.8"
         style="fill:#0b5b4f;fill-opacity:1;fill-rule:nonzero;stroke:none"
         id="path252" /><path
         d="m 3463.1,1453.26 -293.09,169.24 c -2.47,1.43 -2.47,5 0,6.43 l 97.57,56.34 c 3.11,-1.17 6.53,-2.35 10.33,-3.51 8.29,-2.55 17.26,-3.47 26.42,-3.47 22.23,0 45.58,5.45 63.08,6.38 1.31,0.07 2.68,0.1 4.08,0.1 25.02,0 63.7,-10.7 85.4,-19.5 2.68,-1.09 5.43,-1.57 8.21,-1.57 7.95,0 16.15,3.91 23.82,8.55 52.94,-40.6 118.2,-91.14 149.82,-117.58 L 3463.1,1453.26"
         style="fill:#08907c;fill-opacity:1;fill-rule:nonzero;stroke:none"
         id="path254" /><path
         d="m 3959.11,1787.48 v -6.52 c 0,-9.56 -5.1,-18.41 -13.4,-23.23 l -469.22,-270.89 c -4.11,-2.41 -8.8,-3.55 -13.35,-3.55 -4.65,0 -9.3,1.15 -13.5,3.57 l -255.76,147.18 c -8.22,4.74 -13.38,13.68 -13.38,23.24 v 9.03 h 0.06 v -0.1 c 0,-1.16 0.54,-2.23 1.7,-2.95 l 280.88,-162.19 495.97,286.41"
         style="fill:#273e47;fill-opacity:1;fill-rule:nonzero;stroke:none"
         id="path256" /><path
         d="m 3463.1,1501.11 v -17.84 c 4.61,0 9.26,1.17 13.39,3.57 l 469.22,270.89 c 8.31,4.79 13.43,13.66 13.43,23.24 v 6.54 l -496.04,-286.4"
         style="fill:#17282f;fill-opacity:1;fill-rule:nonzero;stroke:none"
         id="path258" /><path
         d="m 3959.14,1787.51 -278.22,160.6 c -4.94,2.86 -11.03,2.86 -15.98,0 l -482.66,-278.69 c -2.36,-1.37 -2.36,-4.79 0,-6.16 l 280.82,-162.16 496.04,286.41"
         style="fill:#33535f;fill-opacity:1;fill-rule:nonzero;stroke:none"
         id="path260" /><path
         d="m 3460.54,1524.72 -150.06,86.55 438.78,253.33 150.83,-86.1 -439.55,-253.78"
         style="fill:#273e47;fill-opacity:1;fill-rule:nonzero;stroke:none"
         id="path262" /><path
         d="m 3900.09,1778.51 -5.73,-3.3 -145.12,82.8 -433,-250.05 -5.73,3.3 438.73,253.35 150.85,-86.1"
         style="fill:#17282f;fill-opacity:1;fill-rule:nonzero;stroke:none"
         id="path264" /><path
         d="m 3386.79,1765.47 2.77,-1.59 73.54,-42.45 130.8,75.51 2.73,1.55 -76.32,44.06 -133.52,-77.08"
         style="fill:#17282f;fill-opacity:1;fill-rule:nonzero;stroke:none"
         id="path266" /><path
         d="m 3389.56,1763.88 73.54,-42.45 130.8,75.51 -73.59,42.46 -130.75,-75.52"
         style="fill:#273e47;fill-opacity:1;fill-rule:nonzero;stroke:none"
         id="path268" /><path
         d="m 3529.14,1712.92 c -21.05,20.87 -51.58,49.8 -77.22,58.3 -3.31,1.05 -8.29,3.37 -18.04,5.6 8.85,1.75 17.74,2.36 26.37,5.27 8.56,2.88 16.73,7.62 22.26,14.76 2.23,2.87 3.8,7.46 0.99,9.76 -1,0.83 -2.33,1.3 -3.65,1.35 -19.22,0.58 -34.37,3.56 -51.82,4.82 -7.63,0.55 -16.19,1.57 -23.54,-0.43 -7.16,-1.94 -14.3,-4.03 -21.32,-6.45 -31.89,-11.04 -60.95,-20.97 -106.09,-10.45 l -81.22,43.33 c 0,0 -17.35,4.34 -42.93,-38.97 -25.57,-43.3 -10.63,-67.09 -10.63,-67.09 l 91.24,-31.5 v 0.01 l 1.31,-0.51 c 10.04,-3.77 19.07,-11.6 43.06,-18.96 28.42,-8.73 64.79,1.59 89.5,2.91 24.69,1.31 66.56,-10.11 89.48,-19.4 12.14,-4.93 25.58,2.67 37.23,10.26 10.34,6.74 19.28,13.48 24.67,11.48 11.5,-4.24 31.39,5.04 10.35,25.91"
         style="fill:#f6879f;fill-opacity:1;fill-rule:nonzero;stroke:none"
         id="path270" /><path
         d="m 3423.24,1790.42 c -16.63,1.69 -34.96,-5.66 -34.96,-5.66 0,0 20.53,-0.43 45.6,-7.94 8.85,1.75 17.74,2.36 26.37,5.27 7.56,2.55 14.8,6.54 20.21,12.35 -13.82,-9.38 -40.59,-5.71 -57.22,-4.02"
         style="fill:#f47089;fill-opacity:1;fill-rule:nonzero;stroke:none"
         id="path272" /><path
         d="m 2982.38,2488.15 c 23.11,-9.13 53.18,-105.46 34.66,-198.17 l -43.02,-289.85 c 0,0 52.69,-31.21 126.64,-77 51.25,-31.74 95.18,-60.84 95.2,-84.35 -33.56,-12.06 -63.72,-73.85 -53.56,-106.06 -22.92,-27.16 -234.5,90.13 -308.48,140.73 -34.29,23.46 -51.59,32.71 -38.4,138.61 14.61,117.21 24.62,247.42 47.46,334.31 23.82,90.7 50.36,125.91 139.5,141.78"
         style="fill:#26b6a6;fill-opacity:1;fill-rule:nonzero;stroke:none"
         id="path274" /><path
         d="m 3129.82,1728.69 c -51.98,0 -229.53,99.3 -296,144.76 -26.49,18.12 -42.84,27.77 -42.82,80.03 0,15.39 1.42,34.49 4.42,58.58 14.61,117.21 24.62,247.42 47.46,334.31 23.82,90.7 50.36,125.91 139.5,141.78 18.08,-7.14 40.41,-67.64 40.42,-138.02 0,-19.6 -1.73,-39.96 -5.76,-60.15 l -43.02,-289.85 v 0 c 0,0 52.69,-31.21 126.64,-77 51.25,-31.74 95.18,-60.84 95.2,-84.35 -29.04,-10.43 -55.53,-58.1 -55.56,-91.62 -0.01,-5.22 0.63,-10.1 2,-14.44 -2.33,-2.76 -6.61,-4.03 -12.48,-4.03"
         style="fill:#a1dfd6;fill-opacity:1;fill-rule:nonzero;stroke:none"
         id="path276" /><path
         d="m 3470.67,1497.15 c 8.88,-3.42 18.97,-2.77 27.37,2.12 l 467.16,269.71 c 8.22,4.75 13.86,12.87 15.45,22.21 l 51.14,304.99 c 0.29,1.74 0.43,3.48 0.43,5.22 0,8.5 -3.39,16.62 -9.39,22.59 l -485.47,-280.33 c -6.07,-3.53 -10.25,-9.54 -11.42,-16.44 l -55.27,-330.07"
         style="fill:#273e47;fill-opacity:1;fill-rule:nonzero;stroke:none"
         id="path278" /><path
         d="m 3463.1,1501.1 3.2,-1.83 c 1.41,-0.8 2.87,-1.5 4.37,-2.12 l 55.27,330.07 c 1.17,6.9 5.35,12.91 11.42,16.44 l 485.47,280.33 c -1.88,1.88 -4.09,3.52 -6.49,4.93 l -486.45,-280.85 c -6.06,-3.52 -10.25,-9.53 -11.42,-16.44 L 3463.1,1501.1"
         style="fill:#33535f;fill-opacity:1;fill-rule:nonzero;stroke:none"
         id="path280" /><path
         d="m 3530.45,1837.44 -7.53,4.34 c -2.22,-2.97 -3.8,-6.4 -4.45,-10.15 l -55.37,-330.53 3.19,-1.83 c 1.42,-0.8 2.88,-1.5 4.38,-2.12 l 55.27,330.07 c 0.65,3.78 2.26,7.23 4.51,10.22"
         style="fill:#17282f;fill-opacity:1;fill-rule:nonzero;stroke:none"
         id="path282" /><path
         d="m 3733.77,1778.7 c 3.42,20.42 24.51,47.54 47.08,60.58 22.59,13.03 38.12,7.05 34.69,-13.38 -3.43,-20.42 -24.5,-47.53 -47.09,-60.57 -22.58,-13.03 -38.1,-7.05 -34.68,13.37"
         style="fill:#26b6a6;fill-opacity:1;fill-rule:nonzero;stroke:none"
         id="path284" /></g></g></svg>
